<svg width="800" height="800" viewBox="0 0 800 800" fill="none" xmlns="http://www.w3.org/2000/svg" xmlns:xlink="http://www.w3.org/1999/xlink">
<g id="quote 32" opacity="0.8" clip-path="url(#clip0_1313_4534)">
<path id="Vector" d="M800 0H0V800H800V0Z" fill="url(#paint0_radial_1313_4534)"/>
<path id="Vector_2" d="M583 52H800V103H583C576.237 103 569.751 100.313 564.969 95.5312C560.187 90.749 557.5 84.263 557.5 77.5C557.5 70.737 560.187 64.251 564.969 59.4688C569.751 54.6866 576.237 52 583 52Z" fill="white"/>
<g id="Group 48">
<path id="Vector_3" d="M599.623 575.922C693.396 482.149 693.396 330.114 599.623 236.341C505.851 142.568 353.815 142.568 260.042 236.341C166.27 330.114 166.27 482.149 260.042 575.922C353.815 669.695 505.851 669.695 599.623 575.922Z" fill="#FFB600"/>
<path id="Vector_4" d="M414.16 624.15C358.355 624.153 304.274 604.806 261.134 569.405C217.994 534.004 188.464 484.74 177.575 430.007C166.685 375.274 175.111 318.459 201.416 269.242C227.721 220.025 270.277 181.451 321.834 160.094C373.391 138.736 430.759 135.917 484.162 152.115C537.565 168.313 583.699 202.527 614.704 248.927C645.709 295.327 659.666 351.043 654.197 406.58C648.727 462.117 624.171 514.039 584.71 553.5C562.366 575.968 535.787 593.78 506.512 605.907C477.237 618.034 445.847 624.235 414.16 624.15ZM414.16 143.91C282.35 143.91 175.16 251.14 175.16 382.91C175.16 514.68 282.39 621.91 414.16 621.91C545.93 621.91 653.16 514.68 653.16 382.91C653.16 251.14 546 143.91 414.16 143.91Z" fill="#1A1502"/>
<path id="Vector_5" d="M379.79 658.26C517.717 658.26 629.53 546.448 629.53 408.52C629.53 270.592 517.717 158.78 379.79 158.78C241.862 158.78 130.05 270.592 130.05 408.52C130.05 546.448 241.862 658.26 379.79 658.26Z" fill="#FAF4F6"/>
<path id="Vector_6" d="M379.79 633.39C255.79 633.39 154.92 532.51 154.92 408.52C154.92 284.53 255.79 183.65 379.79 183.65C503.79 183.65 604.65 284.53 604.65 408.52C604.65 532.51 503.78 633.39 379.79 633.39ZM379.79 185.82C256.99 185.82 157.08 285.72 157.08 408.52C157.08 531.32 257 631.22 379.79 631.22C502.58 631.22 602.49 531.32 602.49 408.52C602.49 285.72 502.58 185.82 379.79 185.82Z" fill="#FFB600"/>
<path id="Vector_7" d="M171.221 245.37C167.281 241.37 165.311 235.703 165.311 228.37C165.311 214.37 175.344 198.54 195.411 180.88L202.551 188.46C196.654 194.409 191.247 200.823 186.381 207.64C182.741 212.973 180.847 218.25 180.701 223.47C183.868 222.455 187.187 222.002 190.511 222.13C194.941 221.973 199.285 223.39 202.771 226.13C204.374 227.425 205.651 229.078 206.5 230.956C207.35 232.834 207.747 234.885 207.66 236.944C207.574 239.003 207.006 241.014 206.002 242.814C204.998 244.614 203.587 246.154 201.881 247.31C198.007 249.977 193.177 251.31 187.391 251.31C180.551 251.363 175.161 249.383 171.221 245.37ZM226.071 245.92C222.131 241.84 220.161 236.173 220.161 228.92C220.161 221.667 222.827 214 228.161 205.92C233.494 197.92 240.851 189.82 250.231 181.62L257.361 189.2C251.493 195.242 246.056 201.688 241.091 208.49C237.714 213.061 235.772 218.533 235.511 224.21C238.65 223.063 241.98 222.53 245.321 222.64C249.807 222.5 254.197 223.964 257.701 226.77C259.263 227.957 260.528 229.491 261.395 231.251C262.263 233.011 262.71 234.948 262.701 236.91C262.701 241.37 260.734 245.013 256.801 247.84C252.58 250.745 247.542 252.226 242.421 252.07C235.474 252.057 230.024 250.007 226.071 245.92Z" fill="black"/>
<path id="Vector_8" d="M516.091 592.42C520.031 596.513 522.001 602.2 522.001 609.48C522.001 616.76 519.334 624.427 514.001 632.48C508.667 640.48 501.311 648.58 491.931 656.78L484.801 649.21C490.649 643.156 496.062 636.696 501.001 629.88C504.376 625.308 506.318 619.837 506.581 614.16C503.441 615.303 500.11 615.833 496.771 615.72C492.285 615.864 487.895 614.403 484.391 611.6C482.828 610.411 481.563 608.876 480.695 607.114C479.827 605.353 479.381 603.414 479.391 601.45C479.391 596.99 481.357 593.35 485.291 590.53C489.508 587.617 494.548 586.132 499.671 586.29C506.684 586.29 512.157 588.333 516.091 592.42ZM570.941 592.98C574.881 596.98 576.851 602.63 576.851 609.93C576.851 623.93 566.817 639.76 546.751 657.42L539.611 649.83C545.509 643.886 550.916 637.475 555.781 630.66C559.421 625.327 561.314 620.05 561.461 614.83C558.293 615.84 554.974 616.293 551.651 616.17C547.22 616.327 542.876 614.91 539.391 612.17C537.787 610.874 536.51 609.22 535.661 607.341C534.812 605.463 534.415 603.411 534.501 601.351C534.588 599.291 535.155 597.28 536.159 595.479C537.163 593.678 538.574 592.137 540.281 590.98C544.154 588.313 548.987 586.98 554.781 586.98C561.594 586.993 566.981 589 570.941 593V592.98Z" fill="black"/>
<path id="Vector_9" d="M239.46 313.92V334.22H236.1V319L230.23 334.21H227.31L221.41 319V334.21H218.08V313.91H222.08L228.8 330.12L235.4 313.91L239.46 313.92Z" fill="black"/>
<path id="Vector_10" d="M257.371 318.92C258.602 319.568 259.618 320.562 260.291 321.78C260.981 323.142 261.341 324.648 261.341 326.175C261.341 327.702 260.981 329.208 260.291 330.57C259.618 331.788 258.602 332.783 257.371 333.43C256.073 334.11 254.625 334.454 253.161 334.43C251.702 334.455 250.261 334.111 248.971 333.43C247.74 332.776 246.726 331.779 246.051 330.56C245.347 329.204 244.98 327.698 244.98 326.17C244.98 324.642 245.347 323.137 246.051 321.78C246.726 320.564 247.741 319.57 248.971 318.92C250.262 318.243 251.702 317.899 253.161 317.92C254.625 317.901 256.071 318.244 257.371 318.92ZM250.791 321.4C250.046 321.813 249.443 322.44 249.061 323.2C248.625 324.13 248.399 325.144 248.399 326.17C248.399 327.197 248.625 328.211 249.061 329.14C249.447 329.892 250.05 330.512 250.791 330.92C251.521 331.307 252.334 331.509 253.161 331.509C253.987 331.509 254.801 331.307 255.531 330.92C256.271 330.512 256.874 329.892 257.261 329.14C257.696 328.211 257.922 327.197 257.922 326.17C257.922 325.144 257.696 324.13 257.261 323.2C256.878 322.44 256.275 321.813 255.531 321.4C254.799 321.019 253.986 320.82 253.161 320.82C252.335 320.82 251.522 321.019 250.791 321.4Z" fill="black"/>
<path id="Vector_11" d="M280.38 319.68C281.591 321.12 282.197 322.973 282.07 324.85V334.22H278.74V325.22C278.817 324.002 278.419 322.801 277.63 321.87C277.239 321.476 276.771 321.168 276.254 320.964C275.738 320.761 275.184 320.668 274.63 320.69C274.039 320.663 273.448 320.762 272.898 320.981C272.348 321.2 271.851 321.534 271.44 321.96C270.582 323.002 270.157 324.333 270.25 325.68V334.24H266.92V318.13H270.25V321.66C270.634 320.51 271.395 319.523 272.41 318.86C273.452 318.187 274.67 317.839 275.91 317.86C276.741 317.829 277.57 317.975 278.341 318.288C279.112 318.602 279.807 319.077 280.38 319.68Z" fill="black"/>
<path id="Vector_12" d="M303.13 326.83H290.75C290.718 327.504 290.823 328.178 291.059 328.81C291.294 329.443 291.655 330.021 292.12 330.51C292.985 331.313 294.13 331.744 295.31 331.71C296.315 331.743 297.302 331.445 298.12 330.86C298.872 330.327 299.382 329.518 299.54 328.61H303.1C302.904 329.72 302.436 330.764 301.738 331.648C301.04 332.533 300.134 333.231 299.1 333.68C297.952 334.192 296.707 334.448 295.45 334.43C294.01 334.46 292.587 334.116 291.32 333.43C290.121 332.773 289.14 331.778 288.5 330.57C287.83 329.202 287.482 327.698 287.482 326.175C287.482 324.652 287.83 323.148 288.5 321.78C289.14 320.572 290.121 319.577 291.32 318.92C292.599 318.269 294.015 317.93 295.45 317.93C296.885 317.93 298.301 318.269 299.58 318.92C300.724 319.54 301.668 320.473 302.3 321.61C302.938 322.777 303.266 324.09 303.25 325.42C303.255 325.893 303.214 326.365 303.13 326.83ZM299.35 322.67C298.981 321.985 298.408 321.433 297.71 321.09C297.007 320.745 296.233 320.571 295.45 320.58C294.246 320.544 293.075 320.974 292.18 321.78C291.718 322.243 291.353 322.794 291.107 323.4C290.862 324.006 290.74 324.656 290.75 325.31H299.89C299.959 324.397 299.772 323.483 299.35 322.67Z" fill="black"/>
<path id="Vector_13" d="M310.7 318.13L315.52 330L320 318.13H323.71L314 341.87H310.29L313.76 333.87L307 318.13H310.7Z" fill="black"/>
<path id="Vector_14" d="M347.581 319C348.6 319.692 349.368 320.695 349.771 321.86V318.12H353.101V334.21H349.771V330.47C349.369 331.638 348.601 332.644 347.581 333.34C346.481 334.081 345.176 334.459 343.851 334.42C342.529 334.445 341.226 334.098 340.091 333.42C338.97 332.739 338.073 331.745 337.511 330.56C336.891 329.178 336.57 327.68 336.57 326.165C336.57 324.65 336.891 323.152 337.511 321.77C338.073 320.585 338.97 319.591 340.091 318.91C341.228 318.236 342.529 317.89 343.851 317.91C345.178 317.874 346.482 318.255 347.581 319ZM341.321 322.25C340.458 323.367 339.99 324.739 339.99 326.15C339.99 327.561 340.458 328.933 341.321 330.05C341.778 330.524 342.331 330.896 342.943 331.141C343.555 331.386 344.212 331.498 344.871 331.47C345.752 331.483 346.62 331.255 347.381 330.81C348.125 330.364 348.731 329.72 349.131 328.95C349.576 328.085 349.796 327.122 349.771 326.15C349.791 325.181 349.571 324.223 349.131 323.36C348.734 322.585 348.128 321.937 347.381 321.49C346.619 321.048 345.751 320.823 344.871 320.84C344.212 320.812 343.555 320.923 342.943 321.168C342.331 321.413 341.778 321.785 341.321 322.26V322.25Z" fill="black"/>
<path id="Vector_15" d="M372.94 319.68C374.147 321.122 374.752 322.974 374.63 324.85V334.22H371.3V325.22C371.378 324.002 370.98 322.801 370.19 321.87C369.8 321.476 369.331 321.168 368.815 320.964C368.298 320.761 367.745 320.668 367.19 320.69C366.601 320.664 366.012 320.764 365.464 320.983C364.915 321.202 364.42 321.535 364.01 321.96C363.145 322.998 362.715 324.332 362.81 325.68V334.24H359.48V318.13H362.81V321.66C363.198 320.512 363.958 319.526 364.97 318.86C366.016 318.187 367.237 317.839 368.48 317.86C369.31 317.83 370.137 317.977 370.906 318.291C371.675 318.604 372.368 319.078 372.94 319.68Z" fill="black"/>
<path id="Vector_16" d="M391.001 319C392.018 319.69 392.78 320.695 393.171 321.86V312.6H396.521V334.21H393.171V330.47C392.78 331.638 392.018 332.646 391.001 333.34C389.901 334.081 388.596 334.459 387.271 334.42C385.948 334.445 384.646 334.098 383.511 333.42C382.39 332.739 381.493 331.745 380.931 330.56C380.311 329.178 379.99 327.68 379.99 326.165C379.99 324.65 380.311 323.152 380.931 321.77C381.493 320.585 382.39 319.591 383.511 318.91C384.648 318.236 385.949 317.89 387.271 317.91C388.597 317.874 389.902 318.255 391.001 319ZM384.741 322.25C383.878 323.367 383.41 324.739 383.41 326.15C383.41 327.561 383.878 328.933 384.741 330.05C385.198 330.524 385.751 330.896 386.363 331.141C386.975 331.386 387.632 331.498 388.291 331.47C389.172 331.483 390.04 331.255 390.801 330.81C391.545 330.364 392.151 329.72 392.551 328.95C392.996 328.085 393.216 327.122 393.191 326.15C393.211 325.181 392.991 324.223 392.551 323.36C392.154 322.585 391.548 321.937 390.801 321.49C390.039 321.048 389.171 320.823 388.291 320.84C387.639 320.817 386.989 320.932 386.385 321.177C385.78 321.421 385.233 321.79 384.781 322.26L384.741 322.25Z" fill="black"/>
<path id="Vector_17" d="M421.9 319.37C423.056 320.354 423.801 321.734 423.99 323.24H420.83C420.728 322.42 420.33 321.667 419.71 321.12C419.023 320.562 418.154 320.278 417.27 320.32C416.572 320.275 415.881 320.489 415.33 320.92C415.099 321.119 414.917 321.369 414.798 321.65C414.678 321.931 414.624 322.235 414.64 322.54C414.632 322.769 414.671 322.997 414.758 323.209C414.844 323.421 414.974 323.612 415.14 323.77C415.499 324.096 415.921 324.345 416.38 324.5C417.077 324.729 417.784 324.922 418.5 325.08C419.497 325.291 420.476 325.575 421.43 325.93C422.181 326.218 422.845 326.693 423.36 327.31C423.93 328.049 424.214 328.969 424.16 329.9C424.18 330.527 424.051 331.149 423.785 331.717C423.52 332.285 423.124 332.783 422.63 333.17C421.445 334.063 419.982 334.509 418.5 334.43C416.769 334.514 415.058 334.018 413.64 333.02C413.022 332.554 412.504 331.967 412.119 331.295C411.734 330.623 411.49 329.879 411.4 329.11H414.64C414.68 329.526 414.804 329.93 415.005 330.296C415.206 330.662 415.48 330.984 415.81 331.24C416.584 331.818 417.536 332.108 418.5 332.06C419.185 332.099 419.858 331.873 420.38 331.43C420.604 331.231 420.782 330.986 420.901 330.711C421.02 330.436 421.078 330.139 421.07 329.84C421.082 329.592 421.04 329.344 420.949 329.113C420.857 328.882 420.718 328.673 420.54 328.5C420.161 328.153 419.716 327.888 419.23 327.72C418.521 327.492 417.8 327.302 417.07 327.15C416.105 326.939 415.153 326.668 414.22 326.34C413.494 326.063 412.85 325.605 412.35 325.01C411.803 324.296 411.53 323.409 411.58 322.51C411.562 321.878 411.691 321.249 411.956 320.675C412.222 320.101 412.617 319.596 413.11 319.2C414.331 318.285 415.837 317.831 417.36 317.92C418.999 317.841 420.611 318.356 421.9 319.37Z" fill="black"/>
<path id="Vector_18" d="M444.67 318.13V334.22H441.31V330.72C440.94 331.858 440.188 332.834 439.18 333.48C438.123 334.152 436.892 334.499 435.64 334.48C434.805 334.514 433.971 334.371 433.196 334.059C432.42 333.747 431.719 333.273 431.14 332.67C429.936 331.226 429.332 329.376 429.45 327.5V318.15H432.78V327.15C432.7 328.375 433.098 329.583 433.89 330.52C434.281 330.914 434.75 331.222 435.266 331.426C435.783 331.629 436.336 331.722 436.89 331.7C437.481 331.724 438.07 331.623 438.618 331.402C439.166 331.181 439.661 330.847 440.07 330.42C440.934 329.373 441.364 328.034 441.27 326.68V318.15L444.67 318.13Z" fill="black"/>
<path id="Vector_19" d="M463.329 319.58C464.706 320.703 465.612 322.302 465.869 324.06H462.339C462.182 323.116 461.675 322.266 460.919 321.68C460.103 321.083 459.109 320.779 458.099 320.82C457.499 320.806 456.903 320.919 456.35 321.152C455.797 321.385 455.299 321.732 454.889 322.17C454.048 323.334 453.595 324.734 453.595 326.17C453.595 327.606 454.048 329.006 454.889 330.17C455.294 330.616 455.79 330.971 456.344 331.209C456.898 331.447 457.496 331.563 458.099 331.55C459.111 331.584 460.106 331.274 460.919 330.67C461.674 330.074 462.18 329.219 462.339 328.27H465.869C465.609 330.033 464.704 331.637 463.329 332.77C461.856 333.919 460.025 334.51 458.159 334.44C456.719 334.472 455.295 334.127 454.029 333.44C452.83 332.783 451.849 331.788 451.209 330.58C450.539 329.212 450.191 327.708 450.191 326.185C450.191 324.662 450.539 323.158 451.209 321.79C451.849 320.582 452.83 319.587 454.029 318.93C455.297 318.248 456.719 317.903 458.159 317.93C460.022 317.861 461.851 318.444 463.329 319.58Z" fill="black"/>
<path id="Vector_20" d="M483.75 319.58C485.127 320.703 486.033 322.302 486.29 324.06H482.75C482.601 323.116 482.097 322.264 481.34 321.68C480.524 321.083 479.53 320.779 478.52 320.82C477.918 320.805 477.32 320.918 476.766 321.151C476.211 321.383 475.711 321.731 475.3 322.17C474.464 323.336 474.015 324.735 474.015 326.17C474.015 327.605 474.464 329.003 475.3 330.17C475.706 330.617 476.204 330.972 476.76 331.21C477.315 331.448 477.916 331.564 478.52 331.55C479.532 331.584 480.526 331.274 481.34 330.67C482.095 330.076 482.598 329.219 482.75 328.27H486.29C486.03 330.033 485.125 331.637 483.75 332.77C482.276 333.917 480.446 334.509 478.58 334.44C477.137 334.47 475.71 334.126 474.44 333.44C473.244 332.781 472.268 331.787 471.63 330.58C470.952 329.214 470.6 327.71 470.6 326.185C470.6 324.66 470.952 323.156 471.63 321.79C472.268 320.583 473.244 319.589 474.44 318.93C475.712 318.249 477.137 317.904 478.58 317.93C480.443 317.861 482.271 318.444 483.75 319.58Z" fill="black"/>
<path id="Vector_21" d="M506.671 326.83H494.291C494.264 327.504 494.372 328.176 494.607 328.807C494.842 329.439 495.2 330.018 495.661 330.51C496.526 331.313 497.671 331.744 498.851 331.71C499.859 331.743 500.85 331.445 501.671 330.86C502.42 330.326 502.927 329.517 503.081 328.61H506.641C506.445 329.72 505.977 330.764 505.279 331.648C504.581 332.533 503.675 333.231 502.641 333.68C501.493 334.193 500.248 334.449 498.991 334.43C497.551 334.46 496.128 334.116 494.861 333.43C493.662 332.773 492.681 331.778 492.041 330.57C491.371 329.202 491.023 327.698 491.023 326.175C491.023 324.652 491.371 323.148 492.041 321.78C492.681 320.572 493.662 319.577 494.861 318.92C496.142 318.269 497.559 317.93 498.996 317.93C500.433 317.93 501.85 318.269 503.131 318.92C504.27 319.543 505.21 320.475 505.841 321.61C506.497 322.773 506.841 324.085 506.841 325.42C506.829 325.894 506.772 326.366 506.671 326.83ZM502.891 322.67C502.523 321.988 501.954 321.436 501.261 321.09C500.554 320.748 499.777 320.573 498.991 320.58C497.787 320.544 496.616 320.974 495.721 321.78C495.259 322.243 494.894 322.794 494.648 323.4C494.403 324.006 494.281 324.656 494.291 325.31H503.431C503.5 324.397 503.313 323.483 502.891 322.67Z" fill="black"/>
<path id="Vector_22" d="M522.17 319.37C523.322 320.355 524.064 321.736 524.25 323.24H521.1C520.993 322.422 520.595 321.669 519.98 321.12C519.292 320.564 518.424 320.28 517.54 320.32C516.838 320.275 516.145 320.489 515.59 320.92C515.364 321.123 515.186 321.374 515.069 321.654C514.951 321.934 514.897 322.237 514.91 322.54C514.899 322.769 514.938 322.998 515.024 323.21C515.111 323.422 515.242 323.614 515.41 323.77C515.768 324.096 516.191 324.345 516.65 324.5C517.343 324.729 518.047 324.923 518.76 325.08C519.759 325.291 520.742 325.576 521.7 325.93C522.449 326.22 523.113 326.695 523.63 327.31C524.195 328.051 524.479 328.969 524.43 329.9C524.449 330.527 524.321 331.149 524.055 331.717C523.789 332.285 523.393 332.783 522.9 333.17C521.711 334.064 520.245 334.51 518.76 334.43C517.026 334.505 515.317 334.002 513.9 333C513.283 332.533 512.767 331.946 512.383 331.274C512 330.602 511.757 329.859 511.67 329.09H514.91C514.949 329.506 515.073 329.91 515.274 330.276C515.476 330.642 515.75 330.964 516.08 331.22C516.85 331.798 517.798 332.088 518.76 332.04C519.447 332.079 520.123 331.853 520.65 331.41C520.872 331.211 521.048 330.965 521.166 330.69C521.283 330.416 521.339 330.119 521.33 329.82C521.342 329.573 521.303 329.325 521.213 329.094C521.123 328.864 520.986 328.654 520.81 328.48C520.429 328.131 519.979 327.866 519.49 327.7C518.781 327.469 518.06 327.279 517.33 327.13C516.368 326.918 515.419 326.647 514.49 326.32C513.761 326.048 513.116 325.59 512.62 324.99C512.069 324.277 511.792 323.39 511.84 322.49C511.821 321.856 511.951 321.227 512.218 320.653C512.485 320.078 512.883 319.574 513.38 319.18C514.6 318.263 516.106 317.81 517.63 317.9C519.271 317.828 520.883 318.35 522.17 319.37Z" fill="black"/>
<path id="Vector_23" d="M539.92 319.37C541.075 320.354 541.821 321.734 542.01 323.24H538.86C538.754 322.419 538.352 321.666 537.73 321.12C537.043 320.562 536.174 320.277 535.29 320.32C534.592 320.277 533.902 320.49 533.35 320.92C533.124 321.123 532.946 321.374 532.829 321.654C532.711 321.934 532.657 322.237 532.67 322.54C532.659 322.768 532.697 322.996 532.782 323.208C532.866 323.42 532.995 323.612 533.16 323.77C533.52 324.094 533.942 324.343 534.4 324.5C534.9 324.67 535.61 324.87 536.52 325.08C537.519 325.291 538.502 325.576 539.46 325.93C540.208 326.218 540.869 326.693 541.38 327.31C541.953 328.048 542.24 328.967 542.19 329.9C542.208 330.528 542.078 331.151 541.81 331.719C541.543 332.287 541.145 332.784 540.65 333.17C539.464 334.063 538.002 334.509 536.52 334.43C534.789 334.511 533.079 334.015 531.66 333.02C531.043 332.552 530.527 331.965 530.142 331.293C529.757 330.621 529.511 329.879 529.42 329.11H532.67C532.704 329.526 532.825 329.931 533.025 330.297C533.225 330.664 533.499 330.985 533.83 331.24C534.605 331.817 535.555 332.106 536.52 332.06C537.207 332.099 537.883 331.873 538.41 331.43C538.63 331.229 538.805 330.983 538.922 330.709C539.039 330.434 539.097 330.138 539.09 329.84C539.102 329.593 539.063 329.345 538.973 329.115C538.883 328.884 538.746 328.674 538.57 328.5C538.189 328.151 537.739 327.886 537.25 327.72C536.541 327.489 535.82 327.299 535.09 327.15C534.124 326.939 533.172 326.668 532.24 326.34C531.514 326.063 530.87 325.605 530.37 325.01C529.826 324.294 529.553 323.408 529.6 322.51C529.582 321.878 529.71 321.249 529.976 320.675C530.241 320.101 530.636 319.596 531.13 319.2C532.351 318.286 533.857 317.832 535.38 317.92C537.019 317.839 538.631 318.354 539.92 319.37Z" fill="black"/>
<path id="Vector_24" d="M213.8 362.08C214.817 362.77 215.579 363.775 215.97 364.94V355.68H219.32V377.29H216V373.55C215.609 374.718 214.847 375.726 213.83 376.42C212.73 377.161 211.425 377.539 210.1 377.5C208.778 377.525 207.475 377.178 206.34 376.5C205.219 375.819 204.322 374.825 203.76 373.64C203.14 372.258 202.819 370.76 202.819 369.245C202.819 367.73 203.14 366.232 203.76 364.85C204.322 363.665 205.219 362.671 206.34 361.99C207.477 361.316 208.778 360.97 210.1 360.99C211.417 360.955 212.712 361.337 213.8 362.08ZM207.54 365.33C206.677 366.447 206.209 367.819 206.209 369.23C206.209 370.641 206.677 372.013 207.54 373.13C207.997 373.604 208.55 373.976 209.162 374.221C209.774 374.466 210.431 374.578 211.09 374.55C211.971 374.563 212.839 374.335 213.6 373.89C214.344 373.444 214.95 372.8 215.35 372.03C215.798 371.166 216.022 370.203 216 369.23C216.017 368.26 215.794 367.302 215.35 366.44C214.953 365.665 214.347 365.017 213.6 364.57C212.838 364.128 211.97 363.903 211.09 363.92C210.432 363.89 209.775 364.001 209.163 364.244C208.551 364.487 207.998 364.857 207.54 365.33Z" fill="black"/>
<path id="Vector_25" d="M237.23 362C238.462 362.647 239.477 363.642 240.15 364.86C240.84 366.222 241.2 367.728 241.2 369.255C241.2 370.782 240.84 372.288 240.15 373.65C239.477 374.868 238.462 375.863 237.23 376.51C235.932 377.19 234.485 377.534 233.02 377.51C231.561 377.535 230.12 377.191 228.83 376.51C227.599 375.856 226.585 374.859 225.91 373.64C225.207 372.284 224.84 370.778 224.84 369.25C224.84 367.722 225.207 366.217 225.91 364.86C226.586 363.644 227.6 362.65 228.83 362C230.122 361.323 231.562 360.979 233.02 361C234.484 360.981 235.931 361.324 237.23 362ZM230.66 364.48C229.915 364.895 229.31 365.521 228.92 366.28C228.484 367.21 228.259 368.224 228.259 369.25C228.259 370.277 228.484 371.29 228.92 372.22C229.313 372.971 229.918 373.59 230.66 374C231.387 374.39 232.2 374.595 233.025 374.595C233.85 374.595 234.663 374.39 235.39 374C236.132 373.59 236.737 372.971 237.13 372.22C237.558 371.288 237.78 370.275 237.78 369.25C237.78 368.225 237.558 367.212 237.13 366.28C236.74 365.521 236.135 364.895 235.39 364.48C234.66 364.099 233.848 363.9 233.025 363.9C232.201 363.9 231.39 364.099 230.66 364.48Z" fill="black"/>
<path id="Vector_26" d="M260.239 362.75C261.454 364.188 262.063 366.042 261.939 367.92V377.29H258.609V368.29C258.686 367.072 258.288 365.871 257.499 364.94C257.108 364.546 256.64 364.238 256.123 364.034C255.607 363.831 255.054 363.738 254.499 363.76C253.909 363.733 253.32 363.832 252.772 364.051C252.223 364.27 251.728 364.604 251.319 365.03C250.453 366.068 250.023 367.401 250.119 368.75V377.31H246.789V361.2H250.119V364.73C250.506 363.582 251.267 362.596 252.279 361.93C253.321 361.257 254.539 360.909 255.779 360.93C256.609 360.9 257.436 361.047 258.205 361.361C258.974 361.674 259.667 362.148 260.239 362.75Z" fill="black"/>
<path id="Vector_27" d="M270.731 356.73C270.789 357.698 270.494 358.654 269.901 359.42C269.586 359.743 269.204 359.993 268.783 360.153C268.362 360.314 267.91 360.381 267.461 360.35V359C267.661 359.015 267.861 358.985 268.048 358.913C268.235 358.84 268.403 358.726 268.541 358.58C268.797 358.208 268.921 357.761 268.891 357.31V356.69H267.311V353.86H270.311C270.585 354.792 270.727 355.758 270.731 356.73Z" fill="black"/>
<path id="Vector_28" d="M284.341 374.4V377.29H282.341C280.93 377.392 279.534 376.948 278.441 376.05C277.561 375.22 277.121 373.85 277.121 371.92V364H274.811V361.2H277.121V357.2H280.471V361.2H284.361V364H280.471V372C280.398 372.676 280.584 373.355 280.991 373.9C281.495 374.303 282.139 374.49 282.781 374.42L284.341 374.4Z" fill="black"/>
<path id="Vector_29" d="M311.29 362.65C312.67 363.772 313.579 365.371 313.84 367.13H310.3C310.147 366.187 309.643 365.337 308.89 364.75C308.074 364.153 307.08 363.85 306.07 363.89C305.468 363.875 304.871 363.988 304.316 364.221C303.761 364.453 303.261 364.801 302.85 365.24C302.015 366.406 301.565 367.805 301.565 369.24C301.565 370.675 302.015 372.074 302.85 373.24C303.257 373.686 303.755 374.039 304.311 374.275C304.866 374.512 305.466 374.626 306.07 374.61C307.081 374.648 308.076 374.341 308.89 373.74C309.642 373.143 310.145 372.288 310.3 371.34H313.84C313.577 373.104 312.668 374.708 311.29 375.84C309.821 376.988 307.993 377.58 306.13 377.51C304.687 377.54 303.26 377.196 301.99 376.51C300.791 375.853 299.81 374.858 299.17 373.65C298.5 372.282 298.152 370.778 298.152 369.255C298.152 367.732 298.5 366.228 299.17 364.86C299.813 363.65 300.797 362.656 302 362C303.272 361.319 304.697 360.974 306.14 361C307.997 360.926 309.821 361.51 311.29 362.65Z" fill="black"/>
<path id="Vector_30" d="M332.88 362.75C334.091 364.19 334.697 366.043 334.57 367.92V377.29H331.24V368.29C331.317 367.072 330.919 365.871 330.13 364.94C329.739 364.546 329.271 364.237 328.754 364.034C328.238 363.831 327.685 363.738 327.13 363.76C326.539 363.733 325.948 363.832 325.398 364.051C324.848 364.27 324.351 364.604 323.94 365.03C323.074 366.068 322.644 367.401 322.74 368.75V377.31H319.41V355.68H322.74V364.73C323.128 363.579 323.893 362.593 324.91 361.93C325.952 361.257 327.17 360.909 328.41 360.93C329.242 360.899 330.07 361.045 330.841 361.358C331.612 361.672 332.307 362.147 332.88 362.75Z" fill="black"/>
<path id="Vector_31" d="M351 362.08C352.014 362.778 352.781 363.779 353.19 364.94V361.2H356.52V377.29H353.19V373.55C352.782 374.714 352.015 375.719 351 376.42C349.896 377.16 348.589 377.538 347.26 377.5C345.941 377.524 344.642 377.177 343.51 376.5C342.387 375.819 341.486 374.825 340.92 373.64C340.307 372.256 339.99 370.759 339.99 369.245C339.99 367.731 340.307 366.234 340.92 364.85C341.485 363.67 342.382 362.679 343.5 362C344.634 361.327 345.932 360.981 347.25 361C348.583 360.956 349.895 361.334 351 362.08ZM344.73 365.33C343.867 366.447 343.399 367.819 343.399 369.23C343.399 370.641 343.867 372.013 344.73 373.13C345.188 373.604 345.741 373.976 346.353 374.221C346.965 374.466 347.622 374.578 348.28 374.55C349.162 374.565 350.03 374.336 350.79 373.89C351.537 373.447 352.143 372.802 352.54 372.03C352.989 371.166 353.212 370.203 353.19 369.23C353.208 368.261 352.984 367.302 352.54 366.44C352.147 365.663 351.54 365.014 350.79 364.57C350.029 364.127 349.161 363.902 348.28 363.92C347.621 363.889 346.962 363.998 346.348 364.242C345.735 364.485 345.18 364.856 344.72 365.33H344.73Z" fill="black"/>
<path id="Vector_32" d="M376.341 362.75C377.552 364.19 378.158 366.043 378.031 367.92V377.29H374.701V368.29C374.778 367.072 374.38 365.871 373.591 364.94C373.2 364.546 372.732 364.238 372.215 364.034C371.699 363.831 371.146 363.738 370.591 363.76C370 363.733 369.409 363.832 368.859 364.051C368.309 364.27 367.812 364.604 367.401 365.03C366.535 366.068 366.105 367.401 366.201 368.75V377.31H362.871V361.2H366.201V364.73C366.589 363.579 367.353 362.593 368.371 361.93C369.413 361.257 370.631 360.909 371.871 360.93C372.703 360.899 373.531 361.045 374.302 361.358C375.073 361.672 375.768 362.147 376.341 362.75Z" fill="black"/>
<path id="Vector_33" d="M394.451 362.08C395.465 362.778 396.232 363.779 396.641 364.94V361.2H400.001V377.47C400.031 378.859 399.714 380.234 399.081 381.47C398.477 382.615 397.557 383.562 396.431 384.2C395.181 384.893 393.769 385.238 392.341 385.2C390.389 385.291 388.462 384.724 386.871 383.59C385.476 382.526 384.539 380.97 384.251 379.24H387.551C387.799 380.146 388.359 380.935 389.131 381.47C390.023 382.045 391.071 382.328 392.131 382.28C392.73 382.301 393.327 382.202 393.889 381.991C394.45 381.78 394.964 381.46 395.401 381.05C395.852 380.579 396.199 380.019 396.421 379.406C396.643 378.793 396.735 378.14 396.691 377.49V373.57C396.282 374.734 395.516 375.739 394.501 376.44C393.397 377.18 392.09 377.558 390.761 377.52C389.439 377.543 388.137 377.197 387.001 376.52C385.88 375.839 384.983 374.845 384.421 373.66C383.801 372.278 383.48 370.78 383.48 369.265C383.48 367.75 383.801 366.252 384.421 364.87C384.982 363.682 385.879 362.684 387.001 362C388.138 361.327 389.439 360.981 390.761 361C392.073 360.969 393.363 361.346 394.451 362.08ZM388.181 365.33C387.318 366.447 386.85 367.819 386.85 369.23C386.85 370.641 387.318 372.013 388.181 373.13C388.639 373.604 389.192 373.976 389.804 374.221C390.416 374.466 391.072 374.578 391.731 374.55C392.612 374.563 393.48 374.335 394.241 373.89C394.993 373.437 395.603 372.782 396.001 372C396.449 371.136 396.673 370.173 396.651 369.2C396.668 368.231 396.445 367.272 396.001 366.41C395.604 365.635 394.998 364.987 394.251 364.54C393.489 364.098 392.621 363.873 391.741 363.89C391.079 363.863 390.419 363.977 389.805 364.225C389.191 364.474 388.638 364.85 388.181 365.33Z" fill="black"/>
<path id="Vector_34" d="M421.14 369.9H408.76C408.728 370.574 408.833 371.248 409.068 371.88C409.304 372.513 409.665 373.091 410.13 373.58C410.992 374.381 412.133 374.812 413.31 374.78C414.318 374.813 415.308 374.515 416.13 373.93C416.882 373.397 417.392 372.588 417.55 371.68H421.11C420.914 372.79 420.446 373.834 419.748 374.718C419.05 375.603 418.143 376.301 417.11 376.75C415.962 377.262 414.716 377.518 413.46 377.5C412.02 377.532 410.596 377.187 409.33 376.5C408.131 375.843 407.15 374.848 406.51 373.64C405.84 372.272 405.492 370.768 405.492 369.245C405.492 367.722 405.84 366.218 406.51 364.85C407.15 363.642 408.131 362.647 409.33 361.99C410.609 361.339 412.024 361 413.46 361C414.895 361 416.31 361.339 417.59 361.99C418.732 362.612 419.675 363.545 420.31 364.68C420.948 365.847 421.275 367.159 421.26 368.49C421.264 368.963 421.224 369.435 421.14 369.9ZM417.36 365.74C416.988 365.057 416.416 364.506 415.72 364.16C415.017 363.815 414.243 363.641 413.46 363.65C412.256 363.614 411.085 364.044 410.19 364.85C409.726 365.311 409.359 365.862 409.114 366.469C408.868 367.075 408.748 367.726 408.76 368.38H417.9C417.969 367.467 417.782 366.553 417.36 365.74Z" fill="black"/>
<path id="Vector_35" d="M449 362C450.121 362.681 451.017 363.675 451.58 364.86C452.2 366.242 452.52 367.74 452.52 369.255C452.52 370.77 452.2 372.268 451.58 373.65C451.016 374.831 450.119 375.822 449 376.5C447.868 377.177 446.569 377.524 445.25 377.5C443.921 377.539 442.613 377.162 441.51 376.42C440.498 375.723 439.74 374.716 439.35 373.55V384.94H436V361.2H439.33V364.94C439.721 363.778 440.479 362.774 441.49 362.08C442.59 361.331 443.899 360.949 445.23 360.99C446.556 360.971 447.861 361.32 449 362ZM441.71 364.58C440.963 365.027 440.357 365.675 439.96 366.45C439.519 367.313 439.299 368.271 439.32 369.24C439.295 370.212 439.515 371.175 439.96 372.04C440.36 372.81 440.966 373.454 441.71 373.9C442.471 374.345 443.339 374.573 444.22 374.56C444.881 374.587 445.541 374.474 446.156 374.23C446.771 373.985 447.328 373.614 447.79 373.14C448.658 372.029 449.129 370.66 449.129 369.25C449.129 367.84 448.658 366.471 447.79 365.36C447.331 364.881 446.775 364.506 446.159 364.26C445.544 364.013 444.883 363.901 444.22 363.93C443.327 363.903 442.444 364.125 441.67 364.57L441.71 364.58Z" fill="black"/>
<path id="Vector_36" d="M472.87 369.9H460.48C460.454 370.574 460.561 371.246 460.796 371.878C461.031 372.509 461.39 373.088 461.85 373.58C462.715 374.383 463.861 374.814 465.04 374.78C466.048 374.813 467.039 374.515 467.86 373.93C468.233 373.667 468.549 373.333 468.791 372.947C469.033 372.56 469.196 372.13 469.27 371.68H472.84C472.635 372.773 472.172 373.801 471.49 374.68C470.789 375.577 469.875 376.285 468.83 376.74C467.683 377.253 466.437 377.509 465.18 377.49C463.74 377.519 462.318 377.175 461.05 376.49C459.851 375.833 458.871 374.838 458.23 373.63C457.561 372.262 457.213 370.758 457.213 369.235C457.213 367.712 457.561 366.208 458.23 364.84C458.871 363.632 459.851 362.637 461.05 361.98C462.332 361.329 463.748 360.99 465.185 360.99C466.622 360.99 468.039 361.329 469.32 361.98C470.46 362.603 471.399 363.535 472.03 364.67C472.691 365.831 473.036 367.144 473.03 368.48C473.017 368.957 472.964 369.432 472.87 369.9ZM469.08 365.74C468.713 365.058 468.144 364.506 467.45 364.16C466.743 363.817 465.966 363.642 465.18 363.65C463.977 363.614 462.805 364.044 461.91 364.85C461.45 365.314 461.086 365.865 460.841 366.471C460.595 367.077 460.473 367.726 460.48 368.38H469.62C469.69 367.467 469.503 366.553 469.08 365.74Z" fill="black"/>
<path id="Vector_37" d="M490.101 362C491.333 362.647 492.348 363.642 493.021 364.86C493.712 366.222 494.071 367.728 494.071 369.255C494.071 370.782 493.712 372.288 493.021 373.65C492.348 374.868 491.333 375.863 490.101 376.51C488.803 377.19 487.356 377.534 485.891 377.51C484.432 377.535 482.991 377.191 481.701 376.51C480.47 375.856 479.456 374.859 478.781 373.64C478.078 372.284 477.711 370.778 477.711 369.25C477.711 367.722 478.078 366.217 478.781 364.86C479.457 363.644 480.471 362.65 481.701 362C482.993 361.323 484.433 360.979 485.891 361C487.355 360.981 488.802 361.324 490.101 362ZM483.521 364.48C482.777 364.893 482.174 365.52 481.791 366.28C481.355 367.21 481.13 368.224 481.13 369.25C481.13 370.277 481.355 371.29 481.791 372.22C482.178 372.972 482.78 373.592 483.521 374C484.251 374.387 485.065 374.589 485.891 374.589C486.717 374.589 487.531 374.387 488.261 374C489.002 373.592 489.604 372.972 489.991 372.22C490.427 371.29 490.652 370.277 490.652 369.25C490.652 368.224 490.427 367.21 489.991 366.28C489.608 365.52 489.005 364.893 488.261 364.48C487.529 364.099 486.716 363.9 485.891 363.9C485.066 363.9 484.253 364.099 483.521 364.48Z" fill="black"/>
<path id="Vector_38" d="M512.601 362C513.722 362.681 514.619 363.675 515.181 364.86C515.801 366.242 516.122 367.74 516.122 369.255C516.122 370.77 515.801 372.268 515.181 373.65C514.619 374.835 513.722 375.829 512.601 376.51C511.469 377.187 510.17 377.534 508.851 377.51C507.522 377.549 506.215 377.171 505.111 376.43C504.099 375.733 503.341 374.726 502.951 373.56V384.95H499.621V361.2H503.001V364.94C503.392 363.778 504.15 362.774 505.161 362.08C506.261 361.331 507.571 360.949 508.901 360.99C510.203 360.983 511.483 361.333 512.601 362ZM505.311 364.58C504.564 365.027 503.958 365.675 503.561 366.45C503.12 367.313 502.901 368.271 502.921 369.24C502.896 370.212 503.116 371.175 503.561 372.04C503.961 372.81 504.567 373.454 505.311 373.9C506.075 374.346 506.947 374.574 507.831 374.56C508.491 374.586 509.149 374.473 509.762 374.229C510.375 373.984 510.93 373.613 511.391 373.14C512.259 372.029 512.73 370.66 512.73 369.25C512.73 367.84 512.259 366.471 511.391 365.36C510.934 364.882 510.379 364.507 509.765 364.261C509.152 364.014 508.492 363.901 507.831 363.93C506.948 363.909 506.077 364.13 505.311 364.57V364.58Z" fill="black"/>
<path id="Vector_39" d="M525 355.68V377.29H521.67V355.68H525Z" fill="black"/>
<path id="Vector_40" d="M546.2 369.9H533.82C533.789 370.574 533.893 371.248 534.129 371.88C534.364 372.513 534.725 373.091 535.19 373.58C536.052 374.381 537.194 374.812 538.37 374.78C539.378 374.813 540.369 374.515 541.19 373.93C541.942 373.397 542.453 372.588 542.61 371.68H546.17C545.974 372.79 545.506 373.834 544.808 374.718C544.11 375.603 543.204 376.301 542.17 376.75C541.022 377.262 539.777 377.518 538.52 377.5C537.08 377.532 535.657 377.187 534.39 376.5C533.191 375.843 532.211 374.848 531.57 373.64C530.901 372.272 530.553 370.768 530.553 369.245C530.553 367.722 530.901 366.218 531.57 364.85C532.211 363.642 533.191 362.647 534.39 361.99C535.67 361.339 537.085 361 538.52 361C539.956 361 541.371 361.339 542.65 361.99C543.794 362.61 544.738 363.543 545.37 364.68C546.026 365.843 546.371 367.155 546.37 368.49C546.358 368.964 546.302 369.436 546.2 369.9ZM542.42 365.74C542.049 365.057 541.476 364.506 540.78 364.16C540.077 363.815 539.303 363.641 538.52 363.65C537.317 363.614 536.145 364.044 535.25 364.85C534.788 365.313 534.423 365.864 534.177 366.47C533.932 367.076 533.81 367.726 533.82 368.38H543C543.057 367.463 542.856 366.549 542.42 365.74Z" fill="black"/>
<path id="Vector_41" d="M556.1 361.35V365H552.33V361.33L556.1 361.35ZM556.1 377.79C556.142 378.751 555.845 379.696 555.26 380.46C554.936 380.811 554.536 381.083 554.09 381.256C553.645 381.429 553.166 381.499 552.69 381.46V380.11C552.887 380.126 553.085 380.101 553.271 380.035C553.457 379.97 553.627 379.866 553.77 379.73C554.038 379.36 554.163 378.905 554.12 378.45V378.19H552.42V375H555.58C555.928 375.889 556.104 376.836 556.1 377.79Z" fill="black"/>
<path id="Vector_42" d="M222.001 417.47V420.36H220.001C218.59 420.465 217.193 420.021 216.101 419.12C215.211 418.29 214.771 416.92 214.771 414.99V407.1H212.461V404.27H214.771V400.27H218.131V404.27H222.001V407.1H218.121V415.05C218.049 415.722 218.231 416.396 218.631 416.94C219.134 417.346 219.778 417.537 220.421 417.47H222.001Z" fill="black"/>
<path id="Vector_43" d="M241 405.82C242.206 407.262 242.812 409.114 242.69 410.99V420.36H239.36V411.36C239.437 410.142 239.039 408.941 238.25 408.01C237.859 407.616 237.391 407.308 236.874 407.104C236.358 406.901 235.805 406.808 235.25 406.83C234.66 406.804 234.072 406.904 233.523 407.123C232.975 407.342 232.48 407.675 232.07 408.1C231.204 409.138 230.774 410.472 230.87 411.82V420.38H227.5V398.75H230.83V407.8C231.22 406.65 231.984 405.665 233 405C234.045 404.327 235.267 403.979 236.51 404C237.345 403.966 238.177 404.11 238.952 404.424C239.726 404.738 240.425 405.214 241 405.82Z" fill="black"/>
<path id="Vector_44" d="M263.75 413H251.36C251.332 413.675 251.44 414.348 251.677 414.98C251.914 415.612 252.276 416.19 252.74 416.68C253.6 417.484 254.743 417.915 255.92 417.88C256.928 417.913 257.919 417.615 258.74 417.03C259.492 416.497 260.002 415.688 260.16 414.78H263.72C263.524 415.89 263.056 416.934 262.358 417.818C261.66 418.703 260.754 419.401 259.72 419.85C258.572 420.362 257.327 420.618 256.07 420.6C254.627 420.63 253.2 420.286 251.93 419.6C250.735 418.941 249.758 417.947 249.12 416.74C248.442 415.374 248.09 413.87 248.09 412.345C248.09 410.82 248.442 409.316 249.12 407.95C249.758 406.743 250.735 405.749 251.93 405.09C253.211 404.439 254.628 404.1 256.065 404.1C257.502 404.1 258.919 404.439 260.2 405.09C261.342 405.712 262.285 406.645 262.92 407.78C263.555 408.948 263.879 410.26 263.86 411.59C263.868 412.062 263.831 412.535 263.75 413ZM260 408.81C259.629 408.127 259.056 407.576 258.36 407.23C257.656 406.888 256.883 406.713 256.1 406.72C254.896 406.681 253.723 407.111 252.83 407.92C252.366 408.382 252 408.933 251.753 409.539C251.505 410.146 251.382 410.795 251.39 411.45H260.54C260.6 410.538 260.413 409.626 260 408.81Z" fill="black"/>
<path id="Vector_45" d="M271.31 404.27L276.13 416.1L280.6 404.27H284.31L274.58 428H270.87L274.35 420L267.57 404.29L271.31 404.27Z" fill="black"/>
<path id="Vector_46" d="M322.7 405.82C323.922 407.255 324.536 409.11 324.41 410.99V420.36H321.08V411.36C321.156 410.179 320.781 409.014 320.03 408.1C319.66 407.711 319.21 407.407 318.711 407.208C318.212 407.01 317.676 406.922 317.14 406.95C316.563 406.92 315.986 407.015 315.449 407.229C314.912 407.443 314.428 407.771 314.03 408.19C313.194 409.208 312.779 410.506 312.87 411.82V420.38H309.54V411.38C309.617 410.199 309.241 409.034 308.49 408.12C308.121 407.73 307.671 407.425 307.172 407.227C306.673 407.028 306.136 406.94 305.6 406.97C305.023 406.94 304.446 407.035 303.909 407.249C303.372 407.463 302.888 407.791 302.49 408.21C301.657 409.229 301.246 410.528 301.34 411.84V420.4H298V404.27H301.33V407.63C301.676 406.534 302.38 405.587 303.33 404.94C304.333 404.304 305.503 403.981 306.69 404.01C307.928 403.982 309.145 404.331 310.18 405.01C311.187 405.706 311.941 406.71 312.33 407.87C312.754 406.708 313.543 405.715 314.58 405.04C315.621 404.365 316.84 404.017 318.08 404.04C318.932 403.991 319.785 404.124 320.582 404.431C321.379 404.738 322.101 405.212 322.7 405.82Z" fill="black"/>
<path id="Vector_47" d="M345.47 413H333.08C333.052 413.675 333.16 414.348 333.397 414.98C333.634 415.612 333.996 416.19 334.46 416.68C335.32 417.484 336.463 417.915 337.64 417.88C338.648 417.913 339.639 417.615 340.46 417.03C341.212 416.497 341.722 415.688 341.88 414.78H345.44C345.239 415.888 344.769 416.93 344.072 417.814C343.374 418.697 342.471 419.397 341.44 419.85C340.292 420.362 339.047 420.618 337.79 420.6C336.347 420.63 334.92 420.286 333.65 419.6C332.455 418.937 331.476 417.944 330.83 416.74C330.161 415.372 329.812 413.868 329.812 412.345C329.812 410.822 330.161 409.318 330.83 407.95C331.476 406.746 332.455 405.753 333.65 405.09C334.931 404.439 336.348 404.1 337.785 404.1C339.222 404.1 340.639 404.439 341.92 405.09C343.062 405.712 344.005 406.645 344.64 407.78C345.276 408.948 345.599 410.26 345.58 411.59C345.583 412.062 345.546 412.534 345.47 413ZM341.69 408.84C341.319 408.157 340.746 407.606 340.05 407.26C339.346 406.918 338.573 406.743 337.79 406.75C336.586 406.711 335.413 407.141 334.52 407.95C334.056 408.412 333.69 408.963 333.443 409.569C333.195 410.176 333.072 410.825 333.08 411.48H342.23C342.295 410.558 342.108 409.635 341.69 408.81V408.84Z" fill="black"/>
<path id="Vector_48" d="M356.801 404.93C357.858 404.301 359.071 403.982 360.301 404.01V407.63H359.301C358.041 407.567 356.797 407.941 355.781 408.69C355.306 409.137 354.939 409.686 354.709 410.296C354.478 410.906 354.39 411.561 354.451 412.21V420.36H351.121V404.27H354.451V407.42C354.987 406.387 355.801 405.524 356.801 404.93Z" fill="black"/>
<path id="Vector_49" d="M380.001 413H367.581C367.549 413.674 367.654 414.348 367.889 414.98C368.125 415.613 368.486 416.191 368.951 416.68C369.813 417.481 370.955 417.912 372.131 417.88C373.159 417.916 374.17 417.606 375.001 417C375.753 416.467 376.263 415.658 376.421 414.75H379.981C379.784 415.844 379.324 416.873 378.641 417.75C377.937 418.644 377.023 419.352 375.981 419.81C374.833 420.322 373.588 420.578 372.331 420.56C370.891 420.592 369.467 420.247 368.201 419.56C367.002 418.903 366.021 417.908 365.381 416.7C364.711 415.332 364.363 413.828 364.363 412.305C364.363 410.782 364.711 409.278 365.381 407.91C366.021 406.702 367.002 405.707 368.201 405.05C369.48 404.399 370.895 404.06 372.331 404.06C373.766 404.06 375.181 404.399 376.461 405.05C377.605 405.67 378.548 406.603 379.181 407.74C379.819 408.907 380.147 410.219 380.131 411.55C380.135 412.036 380.091 412.522 380.001 413ZM376.221 408.84C375.85 408.157 375.277 407.606 374.581 407.26C373.878 406.915 373.104 406.741 372.321 406.75C371.117 406.711 369.944 407.141 369.051 407.95C368.587 408.411 368.221 408.962 367.975 409.569C367.729 410.175 367.609 410.826 367.621 411.48H376.761C376.823 410.553 376.622 409.627 376.181 408.81L376.221 408.84Z" fill="black"/>
<path id="Vector_50" d="M389 398.75V420.36H385.67V398.75H389Z" fill="black"/>
<path id="Vector_51" d="M397.22 404.27L402 416.1L406.47 404.27H410.18L400.49 428H396.78L400.26 420L393.48 404.29L397.22 404.27Z" fill="black"/>
<path id="Vector_52" d="M434.11 405.14C435.12 405.841 435.886 406.841 436.3 408V404.26H439.63V420.35H436.3V416.61C435.888 417.772 435.122 418.776 434.11 419.48C433.006 420.221 431.698 420.599 430.37 420.56C429.051 420.584 427.752 420.237 426.62 419.56C425.498 418.877 424.599 417.883 424.03 416.7C423.416 415.316 423.1 413.819 423.1 412.305C423.1 410.791 423.416 409.294 424.03 407.91C424.599 406.727 425.498 405.733 426.62 405.05C427.753 404.377 429.051 404.031 430.37 404.05C431.7 404.014 433.007 404.395 434.11 405.14ZM427.84 408.4C426.977 409.517 426.509 410.889 426.509 412.3C426.509 413.711 426.977 415.083 427.84 416.2C428.297 416.674 428.85 417.046 429.462 417.291C430.074 417.536 430.731 417.648 431.39 417.62C432.271 417.635 433.139 417.406 433.9 416.96C434.647 416.514 435.256 415.871 435.66 415.1C436.1 414.234 436.32 413.272 436.3 412.3C436.314 411.332 436.095 410.375 435.66 409.51C435.259 408.734 434.649 408.087 433.9 407.64C433.139 407.194 432.271 406.965 431.39 406.98C430.731 406.952 430.074 407.064 429.462 407.309C428.85 407.554 428.297 407.926 427.84 408.4Z" fill="black"/>
<path id="Vector_53" d="M470.66 405.82C471.882 407.255 472.496 409.11 472.37 410.99V420.36H469V411.36C469.076 410.179 468.701 409.014 467.95 408.1C467.58 407.711 467.13 407.407 466.631 407.208C466.132 407.01 465.596 406.922 465.06 406.95C464.483 406.92 463.906 407.015 463.369 407.229C462.832 407.443 462.348 407.771 461.95 408.19C461.114 409.208 460.699 410.506 460.79 411.82V420.38H457.5V411.38C457.576 410.199 457.201 409.034 456.45 408.12C456.081 407.73 455.631 407.425 455.132 407.227C454.633 407.028 454.096 406.94 453.56 406.97C452.983 406.94 452.406 407.035 451.869 407.249C451.332 407.463 450.848 407.791 450.45 408.21C449.617 409.229 449.205 410.528 449.3 411.84V420.4H446V404.27H449.33V407.63C449.676 406.534 450.38 405.587 451.33 404.94C452.333 404.304 453.503 403.981 454.69 404.01C455.928 403.982 457.145 404.331 458.18 405.01C459.187 405.706 459.941 406.71 460.33 407.87C460.753 406.71 461.538 405.718 462.57 405.04C463.615 404.366 464.837 404.018 466.08 404.04C466.926 403.997 467.771 404.133 468.561 404.44C469.35 404.746 470.065 405.217 470.66 405.82Z" fill="black"/>
<path id="Vector_54" d="M491.57 405.06C492.691 405.743 493.591 406.737 494.16 407.92C494.773 409.304 495.09 410.801 495.09 412.315C495.09 413.829 494.773 415.326 494.16 416.71C493.591 417.893 492.691 418.887 491.57 419.57C490.438 420.247 489.139 420.594 487.82 420.57C486.491 420.609 485.183 420.231 484.08 419.49C483.07 418.79 482.313 417.784 481.92 416.62V428H478.59V404.27H481.92V408C482.313 406.836 483.07 405.83 484.08 405.13C485.183 404.389 486.491 404.011 487.82 404.05C489.139 404.034 490.437 404.384 491.57 405.06ZM484.29 407.64C483.54 408.087 482.93 408.734 482.53 409.51C482.089 410.373 481.869 411.331 481.89 412.3C481.865 413.272 482.085 414.235 482.53 415.1C482.933 415.871 483.543 416.514 484.29 416.96C485.05 417.406 485.918 417.635 486.8 417.62C487.46 417.647 488.118 417.534 488.731 417.289C489.345 417.045 489.9 416.674 490.36 416.2C491.228 415.089 491.699 413.72 491.699 412.31C491.699 410.9 491.228 409.531 490.36 408.42C489.902 407.943 489.347 407.57 488.733 407.325C488.119 407.08 487.46 406.969 486.8 407C485.92 406.979 485.052 407.201 484.29 407.64Z" fill="black"/>
<path id="Vector_55" d="M504 398.75V420.36H500.67V398.75H504Z" fill="black"/>
<path id="Vector_56" d="M510.45 398.19C510.874 397.809 511.431 397.612 512 397.64C512.572 397.612 513.132 397.81 513.56 398.19C513.756 398.368 513.911 398.586 514.014 398.83C514.118 399.073 514.168 399.336 514.16 399.6C514.169 399.859 514.119 400.116 514.015 400.353C513.911 400.59 513.756 400.801 513.56 400.97C513.124 401.333 512.567 401.519 512 401.49C511.437 401.518 510.883 401.332 510.45 400.97C510.259 400.798 510.108 400.586 510.008 400.35C509.907 400.113 509.861 399.857 509.87 399.6C509.862 399.337 509.909 399.076 510.009 398.833C510.109 398.59 510.26 398.371 510.45 398.19ZM513.67 404.27V420.36H510.34V404.27H513.67Z" fill="black"/>
<path id="Vector_57" d="M524.789 401.57C524.497 401.899 524.276 402.284 524.14 402.702C524.004 403.121 523.956 403.562 523.999 404V404.26H527.529V407.12H523.999V420.35H520.639V407.13H518.449V404.27H520.639V403.74C520.577 402.921 520.7 402.1 520.997 401.335C521.295 400.57 521.76 399.881 522.359 399.32C523.509 398.32 525.229 397.9 527.529 398.02V400.94C526.569 400.795 525.59 401.02 524.789 401.57Z" fill="black"/>
<path id="Vector_58" d="M534.459 404.27L539.279 416.1L543.749 404.27H547.459L537.729 428H533.999L537.479 420L530.699 404.29L534.459 404.27Z" fill="black"/>
<path id="Vector_59" d="M222.14 447.34L217.67 463.43H214L210 451L206 463.44H202.35L197.88 447.35H201.24L204.31 460.35L208.31 447.35H211.81L215.9 460.35L218.97 447.35L222.14 447.34Z" fill="black"/>
<path id="Vector_60" d="M240.251 448.89C241.465 450.328 242.075 452.182 241.951 454.06V463.43H238.621V454.43C238.7 453.212 238.302 452.01 237.511 451.08C237.12 450.686 236.651 450.378 236.135 450.174C235.618 449.971 235.065 449.878 234.511 449.9C233.921 449.872 233.332 449.971 232.783 450.19C232.234 450.409 231.739 450.743 231.331 451.17C230.465 452.208 230.035 453.542 230.131 454.89V463.45H226.801V441.82H230.131V450.87C230.518 449.722 231.279 448.736 232.291 448.07C233.333 447.397 234.551 447.049 235.791 447.07C236.621 447.04 237.448 447.187 238.216 447.501C238.985 447.814 239.679 448.288 240.251 448.89Z" fill="black"/>
<path id="Vector_61" d="M258.36 448.21C259.374 448.911 260.141 449.916 260.55 451.08V447.34H263.88V463.43H260.55V459.69C260.14 460.851 259.374 461.852 258.36 462.55C257.258 463.296 255.949 463.674 254.62 463.63C253.301 463.649 252.003 463.303 250.87 462.63C249.748 461.947 248.849 460.953 248.28 459.77C247.666 458.386 247.35 456.889 247.35 455.375C247.35 453.861 247.666 452.364 248.28 450.98C248.849 449.797 249.748 448.803 250.87 448.12C252.002 447.443 253.301 447.096 254.62 447.12C255.95 447.084 257.257 447.465 258.36 448.21ZM252.09 451.47C251.233 452.59 250.769 453.96 250.769 455.37C250.769 456.78 251.233 458.15 252.09 459.27C252.547 459.744 253.1 460.116 253.712 460.361C254.324 460.606 254.981 460.718 255.64 460.69C256.524 460.704 257.396 460.476 258.16 460.03C258.904 459.584 259.51 458.94 259.91 458.17C260.355 457.305 260.575 456.342 260.55 455.37C260.57 454.401 260.35 453.443 259.91 452.58C259.513 451.805 258.906 451.157 258.16 450.71C257.396 450.264 256.524 450.036 255.64 450.05C254.981 450.022 254.324 450.134 253.712 450.379C253.1 450.624 252.547 450.996 252.09 451.47Z" fill="black"/>
<path id="Vector_62" d="M278.31 460.54V463.43H276.26C275.536 463.543 274.795 463.48 274.099 463.248C273.404 463.016 272.774 462.62 272.263 462.094C271.751 461.568 271.374 460.927 271.161 460.226C270.948 459.524 270.907 458.781 271.04 458.06V450.17H268.73V447.34H271V443.34H274.35V447.34H278.24V450.17H274.35V458.12C274.276 458.793 274.462 459.47 274.87 460.01C275.373 460.417 276.017 460.608 276.66 460.54H278.31Z" fill="black"/>
<path id="Vector_63" d="M293.06 441.26C293.48 440.88 294.034 440.682 294.6 440.71C295.175 440.682 295.738 440.879 296.17 441.26C296.365 441.438 296.52 441.656 296.623 441.899C296.727 442.143 296.777 442.406 296.77 442.67C296.778 442.929 296.728 443.186 296.624 443.423C296.52 443.66 296.365 443.871 296.17 444.04C295.729 444.403 295.169 444.588 294.6 444.56C294.039 444.589 293.488 444.403 293.06 444.04C292.867 443.869 292.714 443.657 292.612 443.421C292.51 443.184 292.462 442.928 292.47 442.67C292.462 442.407 292.511 442.145 292.613 441.902C292.715 441.658 292.867 441.44 293.06 441.26ZM296.27 447.34V463.43H292.94V447.34H296.27Z" fill="black"/>
<path id="Vector_64" d="M312.461 448.58C313.616 449.564 314.362 450.944 314.551 452.45H311.401C311.295 451.629 310.893 450.876 310.271 450.33C309.584 449.772 308.715 449.487 307.831 449.53C307.133 449.487 306.443 449.7 305.891 450.13C305.662 450.331 305.481 450.581 305.364 450.861C305.246 451.142 305.193 451.446 305.211 451.75C305.202 451.977 305.24 452.202 305.325 452.413C305.409 452.623 305.538 452.813 305.701 452.97C306.058 453.301 306.48 453.553 306.941 453.71C307.441 453.88 308.151 454.08 309.061 454.29C310.061 454.497 311.044 454.781 312.001 455.14C312.749 455.428 313.41 455.903 313.921 456.52C314.494 457.258 314.782 458.177 314.731 459.11C314.749 459.738 314.619 460.361 314.351 460.929C314.084 461.497 313.686 461.994 313.191 462.38C312.004 463.27 310.542 463.713 309.061 463.63C307.331 463.715 305.621 463.223 304.201 462.23C303.585 461.762 303.069 461.174 302.684 460.502C302.299 459.831 302.053 459.089 301.961 458.32H305.211C305.245 458.736 305.366 459.141 305.566 459.508C305.766 459.874 306.04 460.195 306.371 460.45C307.146 461.027 308.096 461.316 309.061 461.27C309.748 461.309 310.424 461.083 310.951 460.64C311.171 460.439 311.346 460.193 311.463 459.919C311.58 459.644 311.638 459.348 311.631 459.05C311.643 458.803 311.604 458.555 311.514 458.325C311.424 458.094 311.287 457.884 311.111 457.71C310.73 457.361 310.28 457.096 309.791 456.93C309.082 456.7 308.361 456.509 307.631 456.36C306.664 456.151 305.712 455.877 304.781 455.54C304.053 455.271 303.409 454.816 302.911 454.22C302.367 453.504 302.095 452.618 302.141 451.72C302.123 451.086 302.252 450.457 302.518 449.881C302.783 449.305 303.178 448.798 303.671 448.4C304.895 447.492 306.399 447.043 307.921 447.13C309.56 447.051 311.172 447.566 312.461 448.58Z" fill="black"/>
<path id="Vector_65" d="M339.761 448.21C340.776 448.911 341.542 449.916 341.951 451.08V447.34H345.281V463.43H342.001V459.69C341.592 460.851 340.825 461.852 339.811 462.55C338.709 463.296 337.4 463.674 336.071 463.63C334.752 463.649 333.455 463.303 332.321 462.63C331.197 461.949 330.297 460.955 329.731 459.77C329.118 458.386 328.801 456.889 328.801 455.375C328.801 453.861 329.118 452.364 329.731 450.98C330.297 449.795 331.197 448.801 332.321 448.12C333.453 447.443 334.752 447.096 336.071 447.12C337.384 447.094 338.673 447.475 339.761 448.21ZM333.491 451.47C332.628 452.587 332.16 453.959 332.16 455.37C332.16 456.781 332.628 458.153 333.491 459.27C333.948 459.744 334.501 460.116 335.113 460.361C335.725 460.606 336.382 460.718 337.041 460.69C337.922 460.705 338.791 460.476 339.551 460.03C340.298 459.584 340.907 458.941 341.311 458.17C341.751 457.304 341.971 456.342 341.951 455.37C341.966 454.402 341.746 453.445 341.311 452.58C340.91 451.804 340.301 451.157 339.551 450.71C338.791 450.264 337.922 450.035 337.041 450.05C336.382 450.022 335.725 450.134 335.113 450.379C334.501 450.624 333.948 450.996 333.491 451.47Z" fill="black"/>
<path id="Vector_66" d="M354.941 441.82V463.43H351.621V441.82H354.941Z" fill="black"/>
<path id="Vector_67" d="M367 448C368.058 447.371 369.27 447.052 370.5 447.08V450.7H369.5C368.24 450.637 366.996 451.011 365.98 451.76C365.503 452.205 365.135 452.754 364.905 453.365C364.674 453.975 364.587 454.631 364.65 455.28V463.43H361.32V447.34H364.65V450.49C365.186 449.457 366 448.594 367 448Z" fill="black"/>
<path id="Vector_68" d="M390.141 456H377.761C377.729 456.674 377.834 457.348 378.069 457.98C378.305 458.613 378.666 459.191 379.131 459.68C379.992 460.482 381.134 460.913 382.311 460.88C383.318 460.913 384.309 460.615 385.131 460.03C385.883 459.497 386.393 458.688 386.551 457.78H390.111C389.914 458.874 389.454 459.903 388.771 460.78C388.065 461.673 387.152 462.38 386.111 462.84C384.962 463.348 383.717 463.601 382.461 463.58C381.018 463.606 379.593 463.261 378.321 462.58C377.125 461.921 376.148 460.927 375.511 459.72C374.833 458.354 374.48 456.85 374.48 455.325C374.48 453.8 374.833 452.296 375.511 450.93C376.148 449.723 377.125 448.729 378.321 448.07C379.591 447.384 381.017 447.04 382.461 447.07C383.9 447.045 385.322 447.389 386.591 448.07C387.735 448.69 388.678 449.623 389.311 450.76C389.949 451.927 390.276 453.239 390.261 454.57C390.267 455.049 390.226 455.528 390.141 456ZM386.361 451.84C385.989 451.157 385.417 450.605 384.721 450.26C384.018 449.915 383.244 449.741 382.461 449.75C381.256 449.711 380.084 450.141 379.191 450.95C378.726 451.411 378.359 451.961 378.113 452.568C377.867 453.175 377.747 453.825 377.761 454.48H386.901C386.962 453.58 386.776 452.681 386.361 451.88V451.84Z" fill="black"/>
<path id="Vector_69" d="M406 448.21C407.015 448.911 407.782 449.916 408.19 451.08V447.34H411.52V463.43H408.19V459.69C407.781 460.851 407.014 461.852 406 462.55C404.899 463.296 403.59 463.674 402.26 463.63C400.942 463.649 399.644 463.303 398.51 462.63C397.387 461.949 396.486 460.955 395.92 459.77C395.307 458.386 394.99 456.889 394.99 455.375C394.99 453.861 395.307 452.364 395.92 450.98C396.486 449.795 397.387 448.801 398.51 448.12C399.642 447.443 400.941 447.096 402.26 447.12C403.59 447.084 404.898 447.465 406 448.21ZM399.73 451.47C398.867 452.587 398.399 453.959 398.399 455.37C398.399 456.781 398.867 458.153 399.73 459.27C400.188 459.744 400.741 460.116 401.353 460.361C401.965 460.606 402.622 460.718 403.28 460.69C404.162 460.705 405.03 460.476 405.79 460.03C406.537 459.584 407.147 458.941 407.55 458.17C407.991 457.304 408.211 456.342 408.19 455.37C408.205 454.402 407.986 453.445 407.55 452.58C407.15 451.804 406.54 451.157 405.79 450.71C405.03 450.264 404.162 450.035 403.28 450.05C402.622 450.022 401.965 450.134 401.353 450.379C400.741 450.624 400.188 450.996 399.73 451.47Z" fill="black"/>
<path id="Vector_70" d="M428.049 448.21C429.061 448.907 429.819 449.915 430.209 451.08V441.82H433.569V463.43H430.209V459.69C429.819 460.853 429.06 461.856 428.049 462.55C426.948 463.296 425.638 463.674 424.309 463.63C422.991 463.649 421.693 463.303 420.559 462.63C419.438 461.947 418.538 460.953 417.969 459.77C417.356 458.386 417.039 456.889 417.039 455.375C417.039 453.861 417.356 452.364 417.969 450.98C418.538 449.797 419.438 448.803 420.559 448.12C421.691 447.443 422.99 447.097 424.309 447.12C425.639 447.084 426.947 447.465 428.049 448.21ZM421.779 451.47C420.923 452.59 420.459 453.96 420.459 455.37C420.459 456.78 420.923 458.15 421.779 459.27C422.237 459.744 422.79 460.116 423.402 460.361C424.014 460.606 424.671 460.718 425.329 460.69C426.21 460.705 427.079 460.476 427.839 460.03C428.586 459.584 429.195 458.941 429.599 458.17C430.044 457.305 430.264 456.342 430.239 455.37C430.26 454.401 430.04 453.443 429.599 452.58C429.199 451.804 428.589 451.157 427.839 450.71C427.079 450.264 426.21 450.035 425.329 450.05C424.671 450.022 424.014 450.134 423.402 450.379C422.79 450.624 422.237 450.996 421.779 451.47Z" fill="black"/>
<path id="Vector_71" d="M441.81 447.34L446.62 459.17L451.09 447.34H454.8L445.08 471.08H441.37L444.84 463.08L438.07 447.37L441.81 447.34Z" fill="black"/>
<path id="Vector_72" d="M476.59 460.54V463.43H474.59C473.179 463.535 471.782 463.09 470.69 462.19C469.8 461.36 469.36 459.98 469.36 458.06V450.17H467V447.34H469.31V443.34H472.67V447.34H476.55V450.17H472.67V458.12C472.599 458.792 472.78 459.466 473.18 460.01C473.683 460.416 474.327 460.606 474.97 460.54H476.59Z" fill="black"/>
<path id="Vector_73" d="M495.54 448.89C496.755 450.328 497.364 452.182 497.24 454.06V463.43H493.91V454.43C493.989 453.212 493.591 452.01 492.8 451.08C492.409 450.686 491.94 450.378 491.424 450.174C490.908 449.971 490.354 449.878 489.8 449.9C489.21 449.874 488.621 449.974 488.073 450.193C487.525 450.412 487.029 450.745 486.62 451.17C485.754 452.208 485.324 453.542 485.42 454.89V463.45H482.09V441.82H485.42V450.87C485.807 449.722 486.568 448.736 487.58 448.07C488.625 447.396 489.847 447.048 491.09 447.07C491.918 447.04 492.744 447.187 493.511 447.501C494.278 447.815 494.97 448.288 495.54 448.89Z" fill="black"/>
<path id="Vector_74" d="M518.3 456H505.91C505.883 456.674 505.99 457.348 506.227 457.98C506.465 458.612 506.826 459.19 507.29 459.68C508.15 460.484 509.293 460.915 510.47 460.88C511.478 460.913 512.469 460.615 513.29 460.03C513.663 459.767 513.979 459.433 514.221 459.046C514.463 458.66 514.626 458.23 514.7 457.78H518.27C518.069 458.888 517.599 459.929 516.902 460.813C516.205 461.697 515.301 462.397 514.27 462.85C513.122 463.358 511.876 463.611 510.62 463.59C509.177 463.616 507.752 463.271 506.48 462.59C505.285 461.927 504.306 460.934 503.66 459.73C502.991 458.362 502.643 456.858 502.643 455.335C502.643 453.812 502.991 452.308 503.66 450.94C504.306 449.736 505.285 448.743 506.48 448.08C507.751 447.394 509.177 447.05 510.62 447.08C512.06 447.055 513.481 447.399 514.75 448.08C515.894 448.697 516.835 449.631 517.46 450.77C518.103 451.935 518.431 453.249 518.41 454.58C518.413 455.056 518.377 455.531 518.3 456ZM514.51 451.84C514.145 451.156 513.575 450.603 512.88 450.26C512.176 449.917 511.403 449.743 510.62 449.75C509.413 449.713 508.238 450.143 507.34 450.95C506.879 451.413 506.515 451.964 506.269 452.571C506.023 453.177 505.901 453.826 505.91 454.48H515.05C515.112 453.58 514.925 452.681 514.51 451.88V451.84Z" fill="black"/>
<path id="Vector_75" d="M529.63 448C530.687 447.371 531.9 447.052 533.13 447.08V450.7H532.13C530.87 450.637 529.626 451.011 528.61 451.76C528.133 452.205 527.765 452.754 527.534 453.365C527.304 453.975 527.217 454.631 527.28 455.28V463.43H524V447.34H527.33V450.49C527.852 449.463 528.648 448.601 529.63 448Z" fill="black"/>
<path id="Vector_76" d="M552.789 456H540.409C540.377 456.674 540.482 457.348 540.718 457.98C540.953 458.613 541.314 459.191 541.779 459.68C542.64 460.482 543.783 460.913 544.959 460.88C545.967 460.913 546.958 460.615 547.779 460.03C548.531 459.497 549.041 458.688 549.199 457.78H552.759C552.563 458.89 552.095 459.934 551.397 460.818C550.699 461.703 549.793 462.401 548.759 462.85C547.61 463.358 546.365 463.611 545.109 463.59C543.666 463.616 542.241 463.271 540.969 462.59C539.774 461.931 538.797 460.937 538.159 459.73C537.481 458.364 537.129 456.86 537.129 455.335C537.129 453.81 537.481 452.306 538.159 450.94C538.797 449.733 539.774 448.739 540.969 448.08C542.239 447.394 543.666 447.05 545.109 447.08C546.549 447.055 547.97 447.399 549.239 448.08C550.402 448.702 551.361 449.646 551.999 450.8C552.638 451.967 552.965 453.279 552.949 454.61C552.939 455.077 552.886 455.543 552.789 456ZM548.999 451.88C548.628 451.197 548.055 450.646 547.359 450.3C546.655 449.957 545.882 449.783 545.099 449.79C543.895 449.751 542.722 450.181 541.829 450.99C541.364 451.451 540.997 452.001 540.751 452.608C540.506 453.215 540.386 453.865 540.399 454.52H549.539C549.608 453.607 549.421 452.693 548.999 451.88Z" fill="black"/>
<path id="Vector_77" d="M561.08 459.75V463.43H557.32V459.75H561.08Z" fill="black"/>
<path id="Vector_78" d="M478 540H271V541H478V540Z" fill="#FFB600"/>
<path id="Vector_79" d="M304.27 523.22C304.428 522.798 304.562 522.368 304.67 521.93C304.774 521.532 304.827 521.122 304.83 520.71C304.771 520.008 304.637 519.314 304.43 518.64C304.234 517.572 303.83 516.552 303.24 515.64L303.09 515.46C303.02 515.431 302.959 515.382 302.915 515.32C302.871 515.259 302.845 515.186 302.84 515.11C302.84 514.83 303.21 514.59 303.96 514.39C304.554 514.214 305.169 514.113 305.79 514.09C306.26 514.09 306.54 514.24 306.62 514.52C306.886 515.395 307.106 516.282 307.28 517.18C307.52 518.34 307.73 519.34 307.9 520.18C308.07 521.02 308.21 521.66 308.31 522.11C308.41 522.56 308.55 523.11 308.71 523.85C308.977 524.956 309.311 526.044 309.71 527.11C309.81 527.34 309.93 527.46 310.07 527.46C310.21 527.46 310.36 527.31 310.52 527.02L311.16 525.78C311.59 524.846 311.957 523.884 312.26 522.9C312.671 521.749 312.9 520.541 312.94 519.32C313.001 518.681 312.891 518.037 312.62 517.455C312.349 516.873 311.928 516.374 311.4 516.01C311.321 515.921 311.275 515.808 311.27 515.69C311.273 515.622 311.291 515.556 311.322 515.496C311.353 515.435 311.397 515.382 311.45 515.34L311.95 515C312.359 514.774 312.791 514.593 313.24 514.46C313.796 514.249 314.385 514.134 314.98 514.12C315.5 514.12 315.8 514.19 315.9 514.33C316.021 514.564 316.073 514.828 316.05 515.09C315.923 517.29 315.44 519.455 314.62 521.5C313.78 523.899 312.778 526.238 311.62 528.5C310.981 529.87 310.172 531.154 309.21 532.32C309.066 532.468 308.901 532.593 308.72 532.69C308.57 532.69 308.43 532.57 308.29 532.34C307.445 530.575 306.826 528.71 306.45 526.79C306.15 525.5 305.98 524.79 305.93 524.6C305.88 524.41 305.84 524.35 305.81 524.35C305.78 524.35 305.65 524.44 305.58 524.6C305 525.95 304.35 527.26 303.64 528.6C303.115 529.579 302.541 530.53 301.92 531.45L301.3 532.37C301.25 532.463 301.179 532.543 301.091 532.602C301.004 532.661 300.904 532.698 300.8 532.71C300.704 532.701 300.613 532.667 300.535 532.611C300.458 532.554 300.397 532.478 300.36 532.39C299.654 530.813 299.101 529.173 298.71 527.49L298.39 526.25C298.33 526.01 298.18 525.38 297.94 524.35C297.47 521.847 296.801 519.386 295.94 516.99C295.772 516.597 295.539 516.235 295.25 515.92C295.115 515.794 294.959 515.692 294.79 515.62C294.61 515.54 294.52 515.44 294.52 515.31C294.526 515.239 294.547 515.171 294.582 515.109C294.616 515.047 294.663 514.993 294.72 514.95C295.131 514.709 295.576 514.53 296.04 514.42C296.591 514.231 297.167 514.123 297.75 514.1C298.22 514.1 298.49 514.25 298.58 514.53C299.124 515.857 299.513 517.243 299.74 518.66C300.273 521.519 300.974 524.344 301.84 527.12C301.92 527.35 302.03 527.47 302.18 527.47C302.33 527.47 302.47 527.34 302.58 527.09C302.943 526.552 303.238 525.971 303.46 525.36C303.81 524.34 304.11 523.63 304.27 523.22Z" fill="black"/>
<path id="Vector_80" d="M325.459 521C325.385 524.37 325.498 527.742 325.799 531.1C325.799 531.5 325.419 531.82 324.659 532.1C324.054 532.33 323.416 532.461 322.769 532.49C322.269 532.49 322.019 532.41 322.019 532.26C322.027 532.133 322.054 532.009 322.099 531.89C322.412 531.223 322.569 528.42 322.569 523.48C322.569 518.83 322.369 516.26 321.969 515.74L321.869 515.59C321.821 515.554 321.782 515.508 321.756 515.454C321.73 515.4 321.717 515.34 321.719 515.28C321.719 515.16 321.809 515.05 321.999 514.97C322.419 514.759 322.867 514.608 323.329 514.52C323.895 514.38 324.476 514.307 325.059 514.3C325.569 514.3 325.829 514.41 325.829 514.65V514.72C325.629 516.46 325.499 518.55 325.459 521Z" fill="black"/>
<path id="Vector_81" d="M339.46 532H338H337.41L332.88 532.22C332.63 532.22 332.51 532.14 332.51 531.97C332.521 531.854 332.545 531.74 332.58 531.63C332.866 530.441 333.007 529.223 333 528C333.08 526 333.11 524.1 333.11 522.42C333.11 520.74 333.11 519.42 333.01 518.32C333.036 517.353 332.87 516.391 332.52 515.49C332.392 515.365 332.295 515.211 332.24 515.04C332.24 514.77 332.69 514.54 333.59 514.34C334.219 514.18 334.862 514.083 335.51 514.05C335.759 514.035 336.008 514.056 336.25 514.11C336.3 514.131 336.342 514.168 336.369 514.215C336.396 514.262 336.407 514.316 336.4 514.37C336.4 514.5 336.4 514.92 336.3 515.64C336.1 517.733 336 520.187 336 523C336 525.79 336.07 528 336.2 529.7C336.2 529.89 336.36 530.04 336.67 530.18C337.044 530.321 337.441 530.389 337.84 530.38C339.47 530.38 340.28 529.12 340.28 526.62C340.307 526.187 340.27 525.752 340.17 525.33C340.113 525.227 340.072 525.116 340.05 525C340.05 524.84 340.17 524.75 340.4 524.75C340.667 524.778 340.922 524.875 341.14 525.03C341.436 525.205 341.694 525.436 341.9 525.71C342.148 526.108 342.331 526.544 342.44 527C342.619 527.678 342.703 528.378 342.69 529.08C342.69 531.08 342.45 532.08 341.97 532.08L339.46 532Z" fill="black"/>
<path id="Vector_82" d="M355.529 532H354.119H353.519L348.989 532.22C348.739 532.22 348.619 532.14 348.619 531.97C348.63 531.854 348.654 531.74 348.689 531.63C348.955 530.436 349.076 529.213 349.049 527.99C349.129 525.95 349.169 524.09 349.169 522.41C349.169 520.72 349.169 519.41 349.069 518.31C349.094 517.343 348.924 516.38 348.569 515.48C348.444 515.352 348.349 515.198 348.289 515.03C348.289 514.76 348.739 514.53 349.639 514.33C350.271 514.17 350.918 514.073 351.569 514.04C351.814 514.025 352.06 514.045 352.299 514.1C352.349 514.121 352.39 514.158 352.417 514.205C352.444 514.252 352.456 514.306 352.449 514.36C352.449 514.49 352.449 514.91 352.349 515.63C352.182 517.73 352.099 520.18 352.099 522.98C352.099 525.77 352.169 527.98 352.299 529.68C352.299 529.87 352.459 530.02 352.769 530.16C353.143 530.301 353.54 530.369 353.939 530.36C355.569 530.36 356.379 529.1 356.379 526.6C356.406 526.167 356.369 525.732 356.269 525.31C356.213 525.207 356.176 525.096 356.159 524.98C356.159 524.82 356.269 524.73 356.499 524.73C356.766 524.757 357.021 524.853 357.239 525.01C357.534 525.185 357.793 525.416 357.999 525.69C358.251 526.086 358.434 526.522 358.539 526.98C358.718 527.658 358.802 528.358 358.789 529.06C358.789 531.06 358.549 532.06 358.069 532.06L355.529 532Z" fill="black"/>
<path id="Vector_83" d="M382.06 518.26L382.16 517.49C382.199 517.181 382.131 516.867 381.967 516.602C381.803 516.336 381.554 516.135 381.26 516.03C380.916 515.903 380.556 515.826 380.19 515.8C379.748 515.791 379.309 515.873 378.9 516.04C378.589 516.163 378.314 516.363 378.1 516.62C377.772 517.065 377.569 517.59 377.51 518.14C377.514 518.458 377.592 518.771 377.738 519.054C377.884 519.337 378.093 519.582 378.35 519.77C378.977 520.262 379.671 520.662 380.41 520.96C381.21 521.3 382.01 521.67 382.82 522.07C383.612 522.48 384.296 523.069 384.82 523.79C385.398 524.562 385.698 525.506 385.67 526.47C385.731 527.331 385.589 528.195 385.253 528.991C384.918 529.787 384.4 530.492 383.74 531.05C382.541 531.962 381.094 532.489 379.589 532.562C378.084 532.635 376.593 532.251 375.31 531.46C374.805 531.143 374.39 530.699 374.108 530.173C373.826 529.647 373.685 529.057 373.7 528.46C373.691 527.913 373.789 527.369 373.99 526.86C374.135 526.477 374.368 526.135 374.67 525.86C375.088 525.482 375.605 525.232 376.16 525.14H376.46C376.906 525.134 377.344 525.248 377.73 525.47C377.903 525.559 378.048 525.694 378.148 525.859C378.249 526.025 378.301 526.216 378.3 526.41C378.297 526.513 378.266 526.614 378.209 526.7C378.153 526.787 378.074 526.856 377.98 526.9C377.75 527.055 377.559 527.26 377.42 527.5C377.288 527.703 377.199 527.931 377.16 528.17L377.11 528.45C377.079 528.892 377.199 529.331 377.452 529.695C377.705 530.059 378.075 530.326 378.5 530.45C378.755 530.551 379.026 530.609 379.3 530.62C379.703 530.638 380.106 530.575 380.484 530.434C380.862 530.293 381.208 530.078 381.5 529.8C381.777 529.529 381.994 529.203 382.137 528.843C382.28 528.483 382.346 528.097 382.33 527.71C382.336 527.225 382.222 526.746 381.997 526.317C381.771 525.887 381.443 525.521 381.04 525.25C380.384 524.786 379.68 524.394 378.94 524.08C378.18 523.77 377.67 523.54 377.41 523.41C377.15 523.28 376.86 523.12 376.56 522.94C376.205 522.714 375.87 522.456 375.56 522.17C375.162 521.817 374.848 521.38 374.64 520.891C374.432 520.401 374.337 519.871 374.36 519.34C374.34 518.255 374.693 517.196 375.36 516.34C375.997 515.586 376.802 514.993 377.711 514.609C378.62 514.225 379.606 514.061 380.59 514.13C381.67 514.098 382.741 514.343 383.7 514.84C384.006 514.987 384.274 515.202 384.485 515.468C384.696 515.734 384.843 516.044 384.916 516.375C384.99 516.707 384.987 517.05 384.908 517.38C384.829 517.71 384.676 518.018 384.46 518.28C384.302 518.473 384.101 518.627 383.874 518.731C383.647 518.834 383.4 518.886 383.15 518.88C382.899 518.879 382.651 518.828 382.42 518.73C382.317 518.702 382.226 518.64 382.161 518.556C382.096 518.471 382.061 518.367 382.06 518.26Z" fill="black"/>
<path id="Vector_84" d="M392.409 522.37L392.279 517.67C392.303 517.07 392.218 516.47 392.029 515.9C391.869 515.47 391.779 515.24 391.779 515.2C391.779 514.84 392.339 514.56 393.459 514.36C394.306 514.19 395.166 514.09 396.029 514.06C396.609 514.06 396.929 514.2 397.029 514.48C397.696 517.771 398.578 521.014 399.669 524.19C399.749 524.38 399.839 524.48 399.929 524.48C400.019 524.48 400.099 524.41 400.169 524.26C401.279 521.13 402.259 518.02 403.099 514.96C403.143 514.851 403.211 514.753 403.297 514.673C403.384 514.594 403.487 514.535 403.599 514.5C404.047 514.345 404.509 514.238 404.979 514.18C405.641 514.082 406.31 514.035 406.979 514.04C407.619 514.04 407.979 514.17 407.979 514.43C407.979 514.43 407.979 514.58 407.899 514.82C407.819 515.06 407.799 515.35 407.749 515.7C407.699 516.05 407.639 516.47 407.579 516.97C407.416 518.277 407.319 519.592 407.289 520.91C407.249 522.403 407.229 523.893 407.229 525.38L407.279 527.99C407.242 528.847 407.323 529.705 407.519 530.54C407.614 530.825 407.691 531.115 407.749 531.41C407.741 531.463 407.721 531.513 407.692 531.558C407.663 531.603 407.624 531.641 407.579 531.67C406.894 532.14 406.068 532.363 405.239 532.3C404.579 532.3 404.239 532.07 404.119 531.63C404.057 531.263 404.031 530.892 404.039 530.52C404.039 530.01 404.089 528.46 404.189 525.85C404.289 523.24 404.339 521.35 404.339 520.17C404.339 518.99 404.279 518.39 404.139 518.39H404.059C403.9 518.629 403.772 518.888 403.679 519.16C403.469 519.66 403.059 520.89 402.449 522.84C401.839 524.79 401.279 526.63 400.779 528.33C400.279 530.03 400.009 530.95 399.959 531.08C399.886 531.294 399.742 531.477 399.551 531.598C399.361 531.72 399.134 531.773 398.909 531.75C398.797 531.753 398.685 531.73 398.583 531.683C398.481 531.636 398.391 531.567 398.319 531.48C397.786 529.02 396.839 525.51 395.479 520.95L394.779 518.69C394.779 518.6 394.719 518.56 394.689 518.56C394.659 518.56 394.539 518.62 394.509 518.74C394.439 519.82 394.409 521.93 394.409 525.09C394.326 527.097 394.443 529.107 394.759 531.09C394.772 531.139 394.772 531.191 394.759 531.24C394.759 531.59 394.489 531.84 393.939 532C393.458 532.142 392.961 532.219 392.459 532.23C392.019 532.23 391.799 532.13 391.799 531.93L391.929 531.54C392.229 530.332 392.39 529.094 392.409 527.85C392.409 526.263 392.409 524.437 392.409 522.37Z" fill="black"/>
<path id="Vector_85" d="M418.061 521C417.986 524.37 418.1 527.742 418.401 531.1C418.401 531.5 418.021 531.82 417.261 532.1C416.655 532.33 416.017 532.461 415.371 532.49C414.871 532.49 414.621 532.41 414.621 532.26C414.628 532.133 414.655 532.009 414.701 531.89C415.007 531.223 415.164 528.42 415.171 523.48C415.171 518.83 414.971 516.26 414.571 515.74L414.471 515.59C414.422 515.554 414.383 515.508 414.357 515.454C414.331 515.4 414.319 515.34 414.321 515.28C414.321 515.16 414.421 515.05 414.601 514.97C415.021 514.759 415.468 514.608 415.931 514.52C416.497 514.38 417.077 514.307 417.661 514.3C418.171 514.3 418.431 514.41 418.431 514.65V514.72C418.231 516.46 418.111 518.55 418.061 521Z" fill="black"/>
<path id="Vector_86" d="M427.089 514.33L430.669 514.53C431.841 514.609 433.015 514.414 434.099 513.96C434.177 513.9 434.271 513.865 434.369 513.86C434.439 513.86 434.479 513.98 434.479 514.21C434.419 514.616 434.273 515.005 434.049 515.35C433.907 515.709 433.66 516.017 433.341 516.235C433.022 516.452 432.645 516.569 432.259 516.57H430.889C430.759 516.57 430.679 516.64 430.649 516.79C430.529 519.23 430.469 521.863 430.469 524.69C430.428 526.822 430.545 528.955 430.819 531.07V531.2C430.819 531.61 430.419 531.94 429.639 532.2C428.92 532.44 428.167 532.568 427.409 532.58C427.079 532.58 426.909 532.48 426.909 532.3C426.926 532.181 426.953 532.064 426.989 531.95C427.321 530.203 427.482 528.428 427.469 526.65C427.609 523.49 427.679 521.103 427.679 519.49L427.629 516.78C427.632 516.738 427.62 516.696 427.594 516.663C427.568 516.63 427.531 516.607 427.489 516.6C427.093 516.533 426.691 516.499 426.289 516.5C425.579 516.446 424.872 516.64 424.289 517.05C424.19 517.123 424.072 517.165 423.949 517.17C423.849 517.17 423.789 517.11 423.789 516.98C423.824 516.686 423.931 516.404 424.099 516.16C424.288 515.838 424.509 515.537 424.759 515.26C425.057 514.946 425.42 514.7 425.822 514.54C426.224 514.379 426.657 514.308 427.089 514.33Z" fill="black"/>
<path id="Vector_87" d="M444.231 521V521.34H448.631C448.631 520.95 448.631 520.44 448.631 519.84C448.631 519.24 448.631 518.7 448.631 518.25C448.631 517.8 448.631 517.41 448.581 517.09C448.531 516.77 448.581 516.5 448.521 516.27C448.461 516.04 448.521 515.86 448.461 515.73C448.452 515.62 448.452 515.51 448.461 515.4C448.461 515.3 448.561 515.18 448.741 515.05C449.526 514.52 450.454 514.241 451.401 514.25C452.011 514.25 452.321 514.36 452.321 514.58C452.321 514.58 452.321 514.69 452.271 514.85C451.905 517.011 451.704 519.198 451.671 521.39C451.621 524.18 451.601 525.67 451.601 525.87C451.525 527.665 451.676 529.463 452.051 531.22C452.094 531.328 452.118 531.443 452.121 531.56C452.121 531.65 452.061 531.75 451.921 531.87C451.2 532.299 450.369 532.507 449.531 532.47C448.901 532.47 448.531 532.25 448.461 531.82C448.403 531.463 448.38 531.101 448.391 530.74C448.391 530.25 448.391 529.5 448.481 528.48C448.571 527.46 448.581 525.71 448.611 523.19H444.261C444.204 525.861 444.321 528.534 444.611 531.19C444.611 531.59 444.231 531.91 443.461 532.19C442.856 532.42 442.218 532.551 441.571 532.58C441.071 532.58 440.831 532.5 440.831 532.35C440.834 532.224 440.858 532.099 440.901 531.98C441.221 531.28 441.371 528.48 441.371 523.57V523.25H439.911C439.771 523.25 439.711 523.25 439.711 523.1C439.731 522.967 439.765 522.836 439.811 522.71C439.913 522.423 440.069 522.158 440.271 521.93C440.359 521.797 440.477 521.686 440.616 521.608C440.755 521.529 440.911 521.486 441.071 521.48H441.351C441.351 518.213 441.161 516.33 440.781 515.83L440.681 515.68C440.633 515.644 440.594 515.597 440.568 515.543C440.542 515.489 440.529 515.43 440.531 515.37C440.531 515.25 440.621 515.14 440.801 515.06C441.221 514.849 441.669 514.698 442.131 514.61C442.697 514.471 443.278 514.397 443.861 514.39C444.381 514.39 444.631 514.5 444.631 514.74V514.81C444.401 516.46 444.281 518.55 444.231 521Z" fill="black"/>
</g>
<path id="Vector_88" d="M50.8296 774C47.766 773.998 44.7717 773.088 42.2255 771.384C39.6793 769.68 37.6955 767.26 36.5249 764.429C35.3543 761.597 35.0496 758.483 35.6492 755.478C36.2488 752.474 37.7259 749.715 39.8936 747.55C42.0613 745.385 44.8223 743.911 47.8275 743.316C50.8326 742.72 53.9469 743.029 56.7766 744.203C59.6063 745.377 62.0242 747.364 63.7246 749.913C65.425 752.461 66.3316 755.456 66.3296 758.52C66.3138 762.624 64.675 766.555 61.7711 769.456C58.8671 772.356 54.9338 773.99 50.8296 774ZM37.0696 759.4C37.211 762.022 38.1224 764.544 39.6896 766.65C39.7626 766.749 39.8573 766.831 39.9665 766.888C40.0756 766.945 40.1964 766.977 40.3196 766.98C41.4596 766.76 42.5896 766.46 43.6096 766.22L42.6096 759.4H37.0696ZM58.0696 766.22C59.0696 766.47 60.1896 766.75 61.2996 766.97C61.4215 766.979 61.5439 766.959 61.6568 766.913C61.7697 766.866 61.87 766.793 61.9496 766.7C63.5523 764.599 64.4767 762.06 64.5996 759.42H59.0996L58.0696 766.22ZM43.5696 750.96L39.8596 750.11C38.1939 752.262 37.2272 754.872 37.0896 757.59H42.5896L43.5696 750.96ZM64.5096 757.59C64.4953 754.85 63.4982 752.207 61.6996 750.14L58.1096 750.97L59.1096 757.59H64.5096ZM57.5096 759.43H51.7496V766.08C53.1196 766.08 54.4396 766.08 55.7496 766.08C55.8804 766.053 56.0026 765.994 56.1054 765.908C56.2083 765.823 56.2887 765.714 56.3396 765.59C56.7596 763.54 57.1096 761.54 57.4996 759.4L57.5096 759.43ZM49.9196 766.08V759.42H44.1896C44.5796 761.57 44.9396 763.61 45.3496 765.63C45.4196 765.74 45.5154 765.831 45.6287 765.896C45.742 765.96 45.8693 765.996 45.9996 766C47.2696 766.07 48.5596 766.05 49.9096 766.05L49.9196 766.08ZM45.2296 751.21L44.2796 757.59H49.9196V751.21H45.2296ZM56.4596 751.21H51.7596V757.55H57.4396L56.4596 751.21ZM51.7396 749.43H55.7396C54.8096 747.43 53.8796 745.72 51.7396 744.78V749.43ZM49.9996 744.78C47.8696 745.78 46.9396 747.45 45.9996 749.43H49.9996V744.78ZM51.8096 767.66V772C52.7309 771.631 53.545 771.036 54.1773 770.271C54.8097 769.506 55.2402 768.594 55.4296 767.62L51.8096 767.66ZM49.9696 772.14V767.72H46.0896C46.9996 769.66 47.8896 771.28 49.9196 772.14H49.9696ZM46.1996 745.6L46.0196 745.33L41.0196 748.46C43.4896 749.62 44.0796 749.46 45.1296 747.46C45.4396 746.82 45.8296 746.22 46.1996 745.6ZM55.6996 745.35L55.5496 745.63L57.5496 749.28L60.4196 748.77L60.5096 748.35L55.6996 745.35ZM60.3596 768.73L60.2396 768.33C59.4596 768.19 58.6896 768.02 57.8996 767.93C57.7649 767.931 57.6321 767.962 57.511 768.02C57.3898 768.079 57.2834 768.165 57.1996 768.27C56.6096 769.27 56.0796 770.35 55.5396 771.39L55.6996 771.61L60.3596 768.73ZM45.9996 771.62L46.1396 771.38C45.5996 770.38 45.0696 769.32 44.4896 768.31C44.4146 768.2 44.3151 768.108 44.199 768.042C44.0828 767.976 43.953 767.938 43.8196 767.93C43.0096 768.02 42.2196 768.2 41.4196 768.35L41.2996 768.71L45.9996 771.62Z" fill="white"/>
<text id="alx.getboost360.com" fill="white" xml:space="preserve" style="white-space: pre" font-family="Roboto" font-size="20" font-weight="500" letter-spacing="0em"><tspan x="77.4902" y="764.076">alx.getboost360.com</tspan></text>
<path id="Vector_89" d="M594.401 91C591.292 90.6412 588.364 89.3515 586.001 87.3C581.737 84.055 578.812 79.3581 577.781 74.1C577.554 72.7589 577.507 71.3936 577.641 70.04C577.831 67.78 578.891 66.75 581.131 66.37C581.58 66.2969 582.036 66.2734 582.491 66.3C582.933 66.3104 583.362 66.4558 583.719 66.7168C584.077 66.9777 584.346 67.3418 584.491 67.76C585.072 69.1303 585.378 70.6016 585.391 72.09C585.431 72.7212 585.312 73.3524 585.045 73.9256C584.778 74.4988 584.37 74.9955 583.861 75.37C583.592 75.52 583.392 75.7691 583.304 76.0644C583.216 76.3596 583.247 76.6774 583.391 76.95C584.44 79.9592 586.533 82.4924 589.291 84.09C589.506 84.2595 589.772 84.3517 590.046 84.3517C590.319 84.3517 590.585 84.2595 590.801 84.09C591.388 83.5794 592.108 83.2441 592.877 83.1221C593.646 83.0001 594.434 83.0964 595.151 83.4C596.159 83.7617 597.133 84.2135 598.061 84.75C598.469 84.95 598.801 85.2783 599.005 85.6846C599.209 86.091 599.274 86.553 599.191 87C599.063 87.8918 598.817 88.7627 598.461 89.59C598.237 90.1199 597.843 90.5604 597.342 90.8427C596.841 91.125 596.26 91.2331 595.691 91.15C595.261 91.08 594.831 91 594.401 91Z" fill="black"/>
<text id="+91 7078810811" fill="black" xml:space="preserve" style="white-space: pre" font-family="Roboto" font-size="20" font-weight="500" letter-spacing="0em"><tspan x="615.439" y="82.726">+91 7078810811</tspan></text>
<g id="Group 43">
<path id="Vector_90" d="M186.28 15H29C21.268 15 15 21.268 15 29V104.38C15 112.112 21.268 118.38 29 118.38H186.28C194.012 118.38 200.28 112.112 200.28 104.38V29C200.28 21.268 194.012 15 186.28 15Z" fill="white"/>

</g>
</g>

<pattern id="pattern0" patternContentUnits="objectBoundingBox" width="1" height="1">
<use xlink:href="#image0_1313_4534" transform="matrix(0.00754027 0 0 0.016129 0.00611252 0)"/>
</pattern>
<radialGradient id="paint0_radial_1313_4534" cx="0" cy="0" r="1" gradientUnits="userSpaceOnUse" gradientTransform="translate(400 400) scale(400)">
<stop offset="0.41" stop-color="#662D91"/>
<stop offset="0.56" stop-color="#622C8A"/>
<stop offset="0.76" stop-color="#572A78"/>
<stop offset="1" stop-color="#45265A"/>
</radialGradient>
<clipPath id="clip0_1313_4534">
<rect width="800" height="800" fill="white"/>
</clipPath>
<image x="40" y="40" width="131" height="62" xlink:href="https://minigt.tsm-models.com/upload/mini_gt/products_gif/product_pic_big/1598049141_216924.jpg" />

</svg>